<svg width="21" height="21" viewBox="0 0 21 21" fill="none" xmlns="http://www.w3.org/2000/svg">
<rect width="21" height="21" rx="10.5" fill="#FFD3D3"/>
<g clip-path="url(#clip0_256_1216)">
<path fill-rule="evenodd" clip-rule="evenodd" d="M8.66022 7.2865C8.17522 7.775 7.86172 8.484 7.73522 9.3495C7.72492 9.4203 7.69955 9.48808 7.66082 9.54823C7.62208 9.60839 7.57089 9.65954 7.5107 9.69821C7.4505 9.73689 7.38271 9.7622 7.31189 9.77242C7.24108 9.78265 7.16889 9.77756 7.10022 9.7575C6.96222 9.7175 6.87572 9.8435 6.83222 9.9605C6.77572 10.1125 6.75872 10.333 6.82422 10.578C6.88122 10.7905 7.08272 11.233 7.36922 11.2065C7.48095 11.1961 7.59294 11.2236 7.68717 11.2845C7.7814 11.3454 7.85239 11.4363 7.88872 11.5425C8.39672 13.0285 9.67221 14 10.7727 14C11.8732 14 13.1487 13.0285 13.6567 11.5425C13.693 11.436 13.7642 11.3448 13.8587 11.2837C13.9533 11.2226 14.0657 11.1953 14.1777 11.206C14.4642 11.2335 14.6662 10.7905 14.7232 10.578C14.7887 10.333 14.7717 10.1125 14.7152 9.9605C14.6712 9.843 14.5847 9.717 14.4462 9.7575C14.3775 9.77773 14.3053 9.78296 14.2344 9.77285C14.1635 9.76273 14.0955 9.7375 14.0352 9.69886C13.9749 9.66022 13.9236 9.60907 13.8848 9.54889C13.846 9.4887 13.8205 9.42087 13.8102 9.35C13.6837 8.4845 13.3702 7.775 12.8852 7.287C12.4087 6.807 11.7277 6.5 10.7727 6.5C9.81821 6.5 9.13672 6.8075 8.66022 7.2865ZM7.95072 6.5815C8.63572 5.8925 9.58371 5.5 10.7727 5.5C11.9622 5.5 12.9092 5.8925 13.5947 6.582C14.1727 7.1635 14.5347 7.927 14.7197 8.7685C14.7472 8.7735 14.7747 8.78 14.8017 8.7875C15.2362 8.9035 15.5162 9.2455 15.6527 9.6125C15.7892 9.9805 15.8022 10.415 15.6892 10.837C15.5307 11.4285 15.1067 12.012 14.4882 12.1695C13.8122 13.795 12.3157 15 10.7727 15C9.22922 15 7.73272 13.794 7.05722 12.169C6.43972 12.0105 6.01672 11.4275 5.85822 10.837C5.74522 10.415 5.75822 9.9805 5.89472 9.612C6.03122 9.2455 6.31122 8.9035 6.74572 8.787C6.77222 8.78 6.79872 8.774 6.82572 8.769C7.01072 7.927 7.37272 7.1635 7.95072 6.5815Z" fill="#FF2524"/>
</g>
<defs>
<clipPath id="clip0_256_1216">
<rect width="12" height="12" fill="white" transform="translate(4.77271 4.5)"/>
</clipPath>
</defs>
</svg>
