<svg width="40" height="40" viewBox="0 0 40 40" fill="none" xmlns="http://www.w3.org/2000/svg">
<rect width="40" height="40" rx="20" fill="#01C259"/>
<path fill-rule="evenodd" clip-rule="evenodd" d="M17.5248 12.7864C19.1529 12.4045 20.8472 12.4045 22.4752 12.7864C24.8264 13.3379 26.6621 15.1737 27.2136 17.5248C27.5955 19.1529 27.5955 20.8472 27.2136 22.4752C26.6621 24.8264 24.8264 26.6621 22.4752 27.2136C20.8472 27.5955 19.1529 27.5955 17.5248 27.2136C15.1737 26.6621 13.3379 24.8264 12.7864 22.4752C12.4045 20.8472 12.4045 19.1529 12.7864 17.5248C13.3379 15.1737 15.1737 13.3379 17.5248 12.7864ZM20.5 18.0056C20.5 17.7295 20.2761 17.5056 20 17.5056C19.7239 17.5056 19.5 17.7295 19.5 18.0056V19.5H18.0056C17.7295 19.5 17.5056 19.7239 17.5056 20C17.5056 20.2761 17.7295 20.5 18.0056 20.5H19.5V21.9944C19.5 22.2705 19.7239 22.4944 20 22.4944C20.2761 22.4944 20.5 22.2705 20.5 21.9944V20.5H21.9944C22.2705 20.5 22.4944 20.2761 22.4944 20C22.4944 19.7239 22.2705 19.5 21.9944 19.5H20.5V18.0056Z" fill="#F2F2F2"/>
</svg>
