<svg width="50" height="50" viewBox="0 0 50 50" fill="none" xmlns="http://www.w3.org/2000/svg">
<path fill-rule="evenodd" clip-rule="evenodd" d="M41.6666 10.4167C42.7178 10.4164 43.7303 10.8134 44.5011 11.5281C45.2719 12.2429 45.744 13.2226 45.8229 14.2709L45.8333 14.5834V35.4167C45.8336 36.4679 45.4366 37.4804 44.7218 38.2512C44.0071 39.022 43.0274 39.4941 41.9791 39.5729L41.6666 39.5834H8.33329C7.28209 39.5837 6.26961 39.1867 5.49882 38.4719C4.72802 37.7571 4.25588 36.7774 4.17704 35.7292L4.16663 35.4167V14.5834C4.16629 13.5322 4.56331 12.5197 5.27808 11.7489C5.99285 10.9781 6.97255 10.5059 8.02079 10.4271L8.33329 10.4167H41.6666ZM35.4229 14.5834H14.577L14.5833 14.8438C14.5833 15.6303 14.4284 16.4092 14.1274 17.1359C13.8264 17.8626 13.3852 18.5229 12.829 19.079C12.2728 19.6352 11.6125 20.0764 10.8858 20.3774C10.1591 20.6784 9.38027 20.8334 8.59371 20.8334L8.33329 20.8271V29.1729L8.59371 29.1667C10.1822 29.1667 11.7057 29.7977 12.829 30.921C13.9522 32.0443 14.5833 33.5677 14.5833 35.1563L14.577 35.4167H35.4229L35.4166 35.1563C35.4166 33.6287 36.0003 32.1588 37.0483 31.0474C38.0962 29.9359 39.5292 29.2669 41.0541 29.1771L41.5375 29.1688L41.6666 29.1729V20.8271L41.4062 20.8334C39.8786 20.8333 38.4088 20.2497 37.2973 19.2017C36.1859 18.1538 35.5168 16.7208 35.427 15.1959L35.4166 14.7125L35.4229 14.5834ZM41.4062 33.3334C41.1448 33.3334 40.8865 33.3896 40.6487 33.4982C40.411 33.6068 40.1994 33.7653 40.0283 33.9629C39.8571 34.1605 39.7305 34.3926 39.657 34.6434C39.5834 34.8943 39.5647 35.158 39.602 35.4167H41.6666V33.3521C41.5804 33.3397 41.4934 33.3335 41.4062 33.3334ZM8.59371 33.3334C8.50657 33.3335 8.41955 33.3397 8.33329 33.3521V35.4167H10.3979C10.4352 35.158 10.4165 34.8943 10.3429 34.6434C10.2694 34.3926 10.1428 34.1605 9.97167 33.9629C9.80055 33.7653 9.58894 33.6068 9.35119 33.4982C9.11343 33.3896 8.8551 33.3334 8.59371 33.3334ZM25 16.6667C27.2101 16.6667 29.3297 17.5447 30.8925 19.1075C32.4553 20.6703 33.3333 22.7899 33.3333 25C33.3333 27.2102 32.4553 29.3298 30.8925 30.8926C29.3297 32.4554 27.2101 33.3334 25 33.3334C22.7898 33.3334 20.6702 32.4554 19.1074 30.8926C17.5446 29.3298 16.6666 27.2102 16.6666 25C16.6666 22.7899 17.5446 20.6703 19.1074 19.1075C20.6702 17.5447 22.7898 16.6667 25 16.6667ZM25 20.8334C23.8949 20.8334 22.8351 21.2723 22.0537 22.0537C21.2723 22.8351 20.8333 23.895 20.8333 25C20.8333 26.1051 21.2723 27.1649 22.0537 27.9463C22.8351 28.7277 23.8949 29.1667 25 29.1667C26.105 29.1667 27.1648 28.7277 27.9462 27.9463C28.7276 27.1649 29.1666 26.1051 29.1666 25C29.1666 23.895 28.7276 22.8351 27.9462 22.0537C27.1648 21.2723 26.105 20.8334 25 20.8334ZM10.3979 14.5834H8.33329V16.6479C8.592 16.6853 8.85572 16.6665 9.10655 16.593C9.35739 16.5195 9.58947 16.3928 9.78707 16.2217C9.98466 16.0506 10.1431 15.839 10.2518 15.6012C10.3604 15.3635 10.4166 15.1052 10.4166 14.8438L10.4125 14.7125L10.3979 14.5834ZM41.6666 14.5834H39.602C39.5647 14.8421 39.5834 15.1058 39.657 15.3566C39.7305 15.6074 39.8571 15.8395 40.0283 16.0371C40.1994 16.2347 40.411 16.3932 40.6487 16.5018C40.8865 16.6105 41.1448 16.6667 41.4062 16.6667L41.5375 16.6625L41.6666 16.6459V14.5834Z" fill="white"/>
</svg>
