<svg width="34" height="34" viewBox="0 0 34 34" fill="none" xmlns="http://www.w3.org/2000/svg">
<rect width="33.9394" height="33.9394" rx="16.9697" fill="#01C259"/>
<g clip-path="url(#clip0_54_2008)">
<path fill-rule="evenodd" clip-rule="evenodd" d="M16.9697 24.0403C20.8748 24.0403 24.0404 20.8748 24.0404 16.9696C24.0404 13.0645 20.8748 9.89893 16.9697 9.89893C13.0645 9.89893 9.89899 13.0645 9.89899 16.9696C9.89899 20.8748 13.0645 24.0403 16.9697 24.0403ZM16.9732 13.9702C16.8407 14.1028 16.7662 14.2826 16.7662 14.4701C16.7662 14.6576 16.8407 14.8374 16.9732 14.97L18.2658 16.2626H13.9696C13.7821 16.2626 13.6022 16.3371 13.4696 16.4697C13.337 16.6023 13.2625 16.7821 13.2625 16.9696C13.2625 17.1572 13.337 17.337 13.4696 17.4696C13.6022 17.6022 13.7821 17.6767 13.9696 17.6767H18.2658L16.9732 18.9699C16.8444 19.1033 16.7732 19.2819 16.7748 19.4673C16.7764 19.6527 16.8507 19.83 16.9818 19.9611C17.1129 20.0922 17.2903 20.1666 17.4757 20.1682C17.6611 20.1698 17.8397 20.0985 17.973 19.9697L20.4725 17.4695C20.6051 17.3369 20.6795 17.1571 20.6795 16.9696C20.6795 16.7821 20.6051 16.6023 20.4725 16.4697L17.9737 13.9702C17.8411 13.8377 17.6613 13.7632 17.4738 13.7632C17.2863 13.7632 17.1058 13.8377 16.9732 13.9702Z" fill="#F2F2F2"/>
</g>
<defs>
<clipPath id="clip0_54_2008">
<rect width="16.9697" height="16.9697" fill="white" transform="translate(8.48483 8.48486)"/>
</clipPath>
</defs>
</svg>
