<svg width="15" height="15" viewBox="0 0 15 15" fill="none" xmlns="http://www.w3.org/2000/svg">
<g clip-path="url(#clip0_297_2112)">
<path fill-rule="evenodd" clip-rule="evenodd" d="M3.93299 3.93299C4.0502 3.81582 4.20914 3.75 4.37487 3.75C4.54059 3.75 4.69954 3.81582 4.81674 3.93299L7.94174 7.05799C8.05891 7.1752 8.12473 7.33414 8.12473 7.49987C8.12473 7.66559 8.05891 7.82454 7.94174 7.94174L4.81674 11.0667C4.69886 11.1806 4.54099 11.2436 4.37712 11.2422C4.21324 11.2407 4.05648 11.175 3.9406 11.0591C3.82472 10.9432 3.75899 10.7865 3.75757 10.6226C3.75615 10.4587 3.81914 10.3009 3.93299 10.183L6.61612 7.49987L3.93299 4.81674C3.81582 4.69954 3.75 4.54059 3.75 4.37487C3.75 4.20914 3.81582 4.0502 3.93299 3.93299ZM7.68299 3.93299C7.8002 3.81582 7.95914 3.75 8.12487 3.75C8.29059 3.75 8.44954 3.81582 8.56674 3.93299L11.6917 7.05799C11.8089 7.1752 11.8747 7.33414 11.8747 7.49987C11.8747 7.66559 11.8089 7.82454 11.6917 7.94174L8.56674 11.0667C8.44886 11.1806 8.29099 11.2436 8.12712 11.2422C7.96324 11.2407 7.80649 11.175 7.6906 11.0591C7.57472 10.9432 7.50899 10.7865 7.50757 10.6226C7.50615 10.4587 7.56914 10.3009 7.68299 10.183L10.3661 7.49987L7.68299 4.81674C7.56582 4.69954 7.5 4.54059 7.5 4.37487C7.5 4.20914 7.56582 4.0502 7.68299 3.93299Z" fill="#A6DEB0"/>
</g>
<defs>
<clipPath id="clip0_297_2112">
<rect width="15" height="15" fill="white"/>
</clipPath>
</defs>
</svg>
