<svg width="44" height="44" viewBox="0 0 44 44" fill="none" xmlns="http://www.w3.org/2000/svg">
<rect x="0.25" y="0.25" width="43.5" height="43.5" rx="7.75" stroke="#01C259" stroke-width="0.5"/>
<path fill-rule="evenodd" clip-rule="evenodd" d="M13.25 22C13.25 21.5858 13.5858 21.25 14 21.25L29.9996 21.25C30.4138 21.25 30.7496 21.5858 30.7496 22C30.7496 22.4142 30.4138 22.75 29.9996 22.75H14C13.5858 22.75 13.25 22.4142 13.25 22ZM16.5331 29C16.5331 28.5858 16.8689 28.25 17.2831 28.25L30 28.25C30.4142 28.25 30.75 28.5858 30.75 29C30.75 29.4142 30.4142 29.75 30 29.75L17.2831 29.75C16.8689 29.75 16.5331 29.4142 16.5331 29ZM22.2219 15C22.2219 14.5858 22.5577 14.25 22.9719 14.25L30 14.25C30.4142 14.25 30.75 14.5858 30.75 15C30.75 15.4142 30.4142 15.75 30 15.75L22.9719 15.75C22.5577 15.75 22.2219 15.4142 22.2219 15Z" fill="#01C259"/>
</svg>
