<svg width="22" height="24" viewBox="0 0 22 24" fill="none" xmlns="http://www.w3.org/2000/svg">
<rect width="22" height="24" rx="6" fill="#FFEAF5"/>
<path d="M12.6667 6.75C12.9761 6.75 13.2728 6.87292 13.4916 7.09171C13.7104 7.3105 13.8333 7.60725 13.8333 7.91667V9.66667H16.1667C16.4761 9.66667 16.7728 9.78958 16.9916 10.0084C17.2104 10.2272 17.3333 10.5239 17.3333 10.8333V16.0833C17.3333 16.3928 17.2104 16.6895 16.9916 16.9083C16.7728 17.1271 16.4761 17.25 16.1667 17.25H6.83334C6.52392 17.25 6.22717 17.1271 6.00838 16.9083C5.78959 16.6895 5.66667 16.3928 5.66667 16.0833V12.5833C5.66667 12.2739 5.78959 11.9772 6.00838 11.7584C6.22717 11.5396 6.52392 11.4167 6.83334 11.4167H9.16667V7.91667C9.16667 7.60725 9.28959 7.3105 9.50838 7.09171C9.72717 6.87292 10.0239 6.75 10.3333 6.75H12.6667ZM12.6667 7.91667H10.3333V16.0833H12.6667V7.91667ZM16.1667 10.8333H13.8333V16.0833H16.1667V10.8333ZM9.16667 12.5833H6.83334V16.0833H9.16667V12.5833Z" fill="#FF2E9B"/>
</svg>
