<svg width="33" height="33" viewBox="0 0 33 33" fill="none" xmlns="http://www.w3.org/2000/svg">
<g clip-path="url(#clip0_66_525)">
<path fill-rule="evenodd" clip-rule="evenodd" d="M12.8991 10.2976C15.1491 9.01091 17.4582 8.22611 19.4005 8.02887C20.3696 7.93081 21.2969 7.97305 22.0937 8.21204C22.8971 8.45067 23.6261 8.91158 24.062 9.67376L26.0477 13.1461C26.4836 13.9082 26.5106 14.7694 26.3094 15.5838C26.1113 16.3917 25.6783 17.2118 25.1014 17.9979C23.9465 19.5719 22.0991 21.164 19.8491 22.4507C17.599 23.7375 15.29 24.5223 13.3477 24.7195C12.3785 24.8176 11.4512 24.7753 10.6544 24.5363C9.85099 24.2977 9.12201 23.8368 8.68615 23.0746L6.70044 19.6023C6.26457 18.8401 6.23749 17.979 6.43878 17.1646C6.63684 16.3567 7.06982 15.5366 7.64669 14.7505C8.80168 13.1765 10.649 11.5844 12.8991 10.2976ZM23.8548 13.3403C23.6514 13.74 23.4004 14.137 23.1157 14.5256C21.9608 16.0996 20.1134 17.6917 17.8634 18.9784C15.6133 20.2652 13.3043 21.05 11.362 21.2472C10.8982 21.2966 10.4313 21.3087 9.96559 21.2831L10.4223 22.0818C10.535 22.2788 10.7663 22.4818 11.2282 22.6208C11.6965 22.7608 12.3421 22.8121 13.1456 22.7304C14.7503 22.5673 16.7919 21.8951 18.8562 20.7146C20.9214 19.5336 22.5352 18.1153 23.4896 16.815C23.9674 16.1639 24.2506 15.5815 24.3674 15.1069C24.4828 14.6377 24.4242 14.336 24.3115 14.1389L23.8548 13.3403ZM13.8919 12.0338C11.8268 13.2148 10.2129 14.6331 9.25855 15.9334C8.78073 16.5845 8.49751 17.1669 8.3807 17.6415C8.26538 18.1106 8.3239 18.4124 8.43659 18.6095C8.54928 18.8065 8.78055 19.0095 9.2425 19.1485C9.71078 19.2885 10.3564 19.3398 11.1599 19.2581C12.7646 19.095 14.8062 18.4228 16.8705 17.2423C18.9357 16.0613 20.5495 14.643 21.5039 13.3427C21.9817 12.6916 22.2649 12.1092 22.3817 11.6346C22.497 11.1654 22.4385 10.8637 22.3258 10.6666C22.2131 10.4696 21.9819 10.2666 21.5199 10.1276C21.0517 9.98757 20.406 9.93632 19.6026 10.0179C17.9984 10.182 15.9562 10.8533 13.8919 12.0338Z" fill="#1969FE"/>
</g>
<defs>
<clipPath id="clip0_66_525">
<rect width="24" height="24" fill="white" transform="translate(0 11.9143) rotate(-29.764)"/>
</clipPath>
</defs>
</svg>
