<svg width="24" height="24" viewBox="0 0 24 24" fill="none" xmlns="http://www.w3.org/2000/svg">
<g clip-path="url(#clip0_307_2506)">
<path fill-rule="evenodd" clip-rule="evenodd" d="M6.293 6.29279C6.48053 6.10532 6.73484 6 7 6C7.26516 6 7.51947 6.10532 7.707 6.29279L12.707 11.2928C12.8945 11.4803 12.9998 11.7346 12.9998 11.9998C12.9998 12.265 12.8945 12.5193 12.707 12.7068L7.707 17.7068C7.5184 17.8889 7.2658 17.9897 7.0036 17.9875C6.7414 17.9852 6.49059 17.88 6.30518 17.6946C6.11977 17.5092 6.0146 17.2584 6.01233 16.9962C6.01005 16.734 6.11084 16.4814 6.293 16.2928L10.586 11.9998L6.293 7.70679C6.10553 7.51926 6.00021 7.26495 6.00021 6.99979C6.00021 6.73462 6.10553 6.48031 6.293 6.29279ZM12.293 6.29279C12.4805 6.10532 12.7348 6 13 6C13.2652 6 13.5195 6.10532 13.707 6.29279L18.707 11.2928C18.8945 11.4803 18.9998 11.7346 18.9998 11.9998C18.9998 12.265 18.8945 12.5193 18.707 12.7068L13.707 17.7068C13.5184 17.8889 13.2658 17.9897 13.0036 17.9875C12.7414 17.9852 12.4906 17.88 12.3052 17.6946C12.1198 17.5092 12.0146 17.2584 12.0123 16.9962C12.01 16.734 12.1108 16.4814 12.293 16.2928L16.586 11.9998L12.293 7.70679C12.1055 7.51926 12.0002 7.26495 12.0002 6.99979C12.0002 6.73462 12.1055 6.48031 12.293 6.29279Z" fill="#01C259"/>
</g>
<defs>
<clipPath id="clip0_307_2506">
<rect width="24" height="24" fill="white"/>
</clipPath>
</defs>
</svg>
