<svg width="50" height="50" viewBox="0 0 50 50" fill="none" xmlns="http://www.w3.org/2000/svg">
<path fill-rule="evenodd" clip-rule="evenodd" d="M10.4167 15.625C10.4167 14.3939 10.6592 13.1748 11.1304 12.0373C11.6015 10.8999 12.2921 9.86642 13.1626 8.99587C14.0332 8.12532 15.0667 7.43477 16.2041 6.96363C17.3415 6.49249 18.5606 6.25 19.7917 6.25C21.0229 6.25 22.242 6.49249 23.3794 6.96363C24.5168 7.43477 25.5503 8.12532 26.4209 8.99587C27.2914 9.86642 27.982 10.8999 28.4531 12.0373C28.9243 13.1748 29.1667 14.3939 29.1667 15.625C29.1667 18.1114 28.179 20.496 26.4209 22.2541C24.6627 24.0123 22.2782 25 19.7917 25C17.3053 25 14.9208 24.0123 13.1626 22.2541C11.4045 20.496 10.4167 18.1114 10.4167 15.625ZM19.7917 10.4167C18.4104 10.4167 17.0857 10.9654 16.1089 11.9422C15.1321 12.9189 14.5834 14.2437 14.5834 15.625C14.5834 17.0063 15.1321 18.3311 16.1089 19.3078C17.0857 20.2846 18.4104 20.8333 19.7917 20.8333C21.1731 20.8333 22.4978 20.2846 23.4746 19.3078C24.4513 18.3311 25.0001 17.0063 25.0001 15.625C25.0001 14.2437 24.4513 12.9189 23.4746 11.9422C22.4978 10.9654 21.1731 10.4167 19.7917 10.4167ZM19.7917 27.0833C23.9438 27.0833 27.7188 28.35 30.4938 30.1375C31.8834 31.0333 33.073 32.0896 33.9376 33.2417C34.7855 34.3771 35.4167 35.7417 35.4167 37.2021C35.4167 38.775 34.6876 40.0354 33.6167 40.9458C32.6063 41.8 31.2897 42.3542 29.9292 42.7354C27.1938 43.5 23.5751 43.75 19.7917 43.75C16.0084 43.75 12.3897 43.5 9.65633 42.7354C8.29383 42.3542 6.97716 41.8 5.96883 40.9458C4.89383 40.0375 4.16675 38.775 4.16675 37.2021C4.16675 35.7396 4.798 34.3771 5.64591 33.2437C6.5105 32.0896 7.70008 31.0312 9.08966 30.1396C11.8647 28.3479 15.6397 27.0833 19.7917 27.0833ZM19.7917 31.25C16.4647 31.25 13.4688 32.275 11.3438 33.6417C10.2813 34.325 9.48966 35.0625 8.98133 35.7396C8.4605 36.4354 8.33341 36.9396 8.33341 37.2021C8.33341 37.3562 8.36466 37.5146 8.6605 37.7646C9.02091 38.0729 9.68966 38.4187 10.7772 38.7229C12.9438 39.3271 16.0959 39.5833 19.7917 39.5833C23.4876 39.5833 26.6397 39.3271 28.8063 38.7229C29.8938 38.4187 30.5626 38.0729 30.923 37.7646C31.2188 37.5146 31.2501 37.3562 31.2501 37.2021C31.2501 36.9396 31.123 36.4354 30.6022 35.7396C30.0938 35.0625 29.3022 34.325 28.2397 33.6417C26.1147 32.275 23.1188 31.25 19.7917 31.25ZM37.5001 27.0833C40.2501 27.0833 42.7459 27.9917 44.5834 29.2729C46.2959 30.4667 47.9167 32.35 47.9167 34.5229C47.9167 35.7458 47.3897 36.7583 46.5876 37.4937C45.8438 38.1771 44.9022 38.5937 43.9959 38.8687C42.1834 39.4167 39.8501 39.5833 37.5001 39.5833H37.0772C37.348 38.8583 37.5001 38.0625 37.5001 37.2021C37.5001 36.7354 37.4542 36.2854 37.3751 35.8479L37.2772 35.4167H37.5001C39.7522 35.4167 41.5834 35.2458 42.7897 34.8812C43.3355 34.7146 43.6167 34.5479 43.7376 34.4521C43.6772 34.2063 43.3522 33.4937 42.2001 32.6917C41.1956 32.0089 40.0544 31.5534 38.8558 31.357C37.6573 31.1605 36.4304 31.2278 35.2605 31.5542C34.252 30.3566 33.0693 29.3172 31.7522 28.4708C33.5314 27.5601 35.5013 27.0846 37.5001 27.0833ZM31.2501 18.75C31.2501 17.0924 31.9086 15.5027 33.0807 14.3306C34.2528 13.1585 35.8425 12.5 37.5001 12.5C39.1577 12.5 40.7474 13.1585 41.9195 14.3306C43.0916 15.5027 43.7501 17.0924 43.7501 18.75C43.7501 20.4076 43.0916 21.9973 41.9195 23.1694C40.7474 24.3415 39.1577 25 37.5001 25C35.8425 25 34.2528 24.3415 33.0807 23.1694C31.9086 21.9973 31.2501 20.4076 31.2501 18.75ZM37.5001 16.6667C36.9475 16.6667 36.4176 16.8862 36.0269 17.2769C35.6362 17.6676 35.4167 18.1975 35.4167 18.75C35.4167 19.3025 35.6362 19.8324 36.0269 20.2231C36.4176 20.6138 36.9475 20.8333 37.5001 20.8333C38.0526 20.8333 38.5825 20.6138 38.9732 20.2231C39.3639 19.8324 39.5834 19.3025 39.5834 18.75C39.5834 18.1975 39.3639 17.6676 38.9732 17.2769C38.5825 16.8862 38.0526 16.6667 37.5001 16.6667Z" fill="white"/>
</svg>
