<svg width="80" height="80" viewBox="0 0 80 80" fill="none" xmlns="http://www.w3.org/2000/svg">
<mask id="mask0_195_3840" style="mask-type:luminance" maskUnits="userSpaceOnUse" x="4" y="3" width="72" height="74">
<path d="M40 6.66699L48.755 13.0537L59.5933 13.0337L62.9217 23.347L71.7017 29.7003L68.3333 40.0003L71.7017 50.3003L62.9217 56.6537L59.5933 66.967L48.755 66.947L40 73.3337L31.245 66.947L20.4067 66.967L17.0783 56.6537L8.29834 50.3003L11.6667 40.0003L8.29834 29.7003L17.0783 23.347L20.4067 13.0337L31.245 13.0537L40 6.66699Z" fill="white" stroke="white" stroke-width="6.66667" stroke-linecap="round" stroke-linejoin="round"/>
<path d="M28.3334 40.0003L36.6667 48.3337L53.3334 31.667" stroke="black" stroke-width="6.66667" stroke-linecap="round" stroke-linejoin="round"/>
</mask>
<g mask="url(#mask0_195_3840)">
</g>
<path fill-rule="evenodd" clip-rule="evenodd" d="M29.5992 11.1457C36.1113 9.61811 42.8887 9.61811 49.4008 11.1457C58.8053 13.3516 66.1484 20.6947 68.3543 30.0992C69.8819 36.6113 69.8819 43.3887 68.3543 49.9008C66.1484 59.3053 58.8053 66.6484 49.4008 68.8543C42.8887 70.3819 36.1113 70.3819 29.5992 68.8543C20.1947 66.6484 12.8517 59.3053 10.6457 49.9009C9.11811 43.3887 9.11811 36.6113 10.6457 30.0991C12.8517 20.6947 20.1947 13.3516 29.5992 11.1457ZM39.4999 33.618C41.2622 33.618 42.6909 32.1894 42.6909 30.4271C42.6909 28.6647 41.2622 27.2361 39.4999 27.2361C37.7376 27.2361 36.309 28.6647 36.309 30.4271C36.309 32.1894 37.7376 33.618 39.4999 33.618ZM39.4999 36.0112C40.8216 36.0112 41.8931 37.0827 41.8931 38.4044V51.1683C41.8931 52.49 40.8216 53.5615 39.4999 53.5615C38.1782 53.5615 37.1067 52.49 37.1067 51.1683V38.4044C37.1067 37.0827 38.1782 36.0112 39.4999 36.0112Z" fill="#01C259"/>
</svg>
