<svg width="53" height="53" viewBox="0 0 53 53" fill="none" xmlns="http://www.w3.org/2000/svg">
<mask id="mask0_145_832" style="mask-type:luminance" maskUnits="userSpaceOnUse" x="3" y="2" width="47" height="49">
<path d="M26.3556 4.39258L32.1242 8.6007L39.2655 8.58752L41.4585 15.3829L47.2436 19.5691L45.0242 26.3556L47.2436 33.1422L41.4585 37.3284L39.2655 44.1238L32.1242 44.1106L26.3556 48.3187L20.587 44.1106L13.4457 44.1238L11.2527 37.3284L5.46765 33.1422L7.68702 26.3556L5.46765 19.5691L11.2527 15.3829L13.4457 8.58752L20.587 8.6007L26.3556 4.39258Z" fill="white" stroke="white" stroke-width="4.39261" stroke-linecap="round" stroke-linejoin="round"/>
<path d="M18.6686 26.355L24.1593 31.8458L35.1409 20.8643" stroke="black" stroke-width="4.39261" stroke-linecap="round" stroke-linejoin="round"/>
</mask>
<g mask="url(#mask0_145_832)">
</g>
<path fill-rule="evenodd" clip-rule="evenodd" d="M19.5026 7.34374C23.7935 6.33724 28.259 6.33724 32.5498 7.34373C38.7463 8.79724 43.5846 13.6355 45.0381 19.832C46.0446 24.1229 46.0446 28.5884 45.0381 32.8792C43.5846 39.0757 38.7463 43.914 32.5498 45.3675C28.259 46.374 23.7935 46.374 19.5026 45.3675C13.3061 43.914 8.46784 39.0757 7.01433 32.8792C6.00784 28.5884 6.00784 24.1229 7.01433 19.832C8.46784 13.6355 13.3061 8.79724 19.5026 7.34374ZM26.0262 22.1506C27.1873 22.1506 28.1287 21.2093 28.1287 20.0481C28.1287 18.8869 27.1873 17.9456 26.0262 17.9456C24.865 17.9456 23.9237 18.8869 23.9237 20.0481C23.9237 21.2093 24.865 22.1506 26.0262 22.1506ZM26.0262 23.7275C26.8971 23.7275 27.603 24.4334 27.603 25.3043V33.7143C27.603 34.5852 26.8971 35.2912 26.0262 35.2912C25.1553 35.2912 24.4493 34.5852 24.4493 33.7143V25.3043C24.4493 24.4334 25.1553 23.7275 26.0262 23.7275Z" fill="#9747FF"/>
</svg>
