<svg width="21" height="21" viewBox="0 0 21 21" fill="none" xmlns="http://www.w3.org/2000/svg">
<rect width="21" height="21" rx="10.5" fill="#FFD3D3"/>
<g clip-path="url(#clip0_256_1209)">
<path d="M10.7727 5.5C13.5342 5.5 15.7727 7.7385 15.7727 10.5C15.7727 13.2615 13.5342 15.5 10.7727 15.5C8.01121 15.5 5.77271 13.2615 5.77271 10.5C5.77271 7.7385 8.01121 5.5 10.7727 5.5ZM10.7727 6.5C9.71184 6.5 8.69442 6.92143 7.94428 7.67157C7.19413 8.42172 6.77271 9.43913 6.77271 10.5C6.77271 11.5609 7.19413 12.5783 7.94428 13.3284C8.69442 14.0786 9.71184 14.5 10.7727 14.5C11.8336 14.5 12.851 14.0786 13.6011 13.3284C14.3513 12.5783 14.7727 11.5609 14.7727 10.5C14.7727 9.43913 14.3513 8.42172 13.6011 7.67157C12.851 6.92143 11.8336 6.5 10.7727 6.5ZM12.1727 11.4285C12.2194 11.3814 12.2749 11.3441 12.3361 11.3187C12.3973 11.2933 12.4629 11.2803 12.5292 11.2805C12.5954 11.2807 12.661 11.294 12.7221 11.3198C12.7831 11.3455 12.8385 11.3831 12.8848 11.4305C12.9312 11.4778 12.9677 11.5338 12.9923 11.5954C13.0168 11.657 13.0289 11.7228 13.0277 11.789C13.0266 11.8553 13.0123 11.9206 12.9857 11.9813C12.9591 12.042 12.9207 12.0968 12.8727 12.1425C12.3124 12.6929 11.5581 13.0009 10.7727 13C9.98729 13.0009 9.23302 12.6929 8.67271 12.1425C8.58022 12.0492 8.52817 11.9233 8.52781 11.7919C8.52744 11.6605 8.5788 11.5343 8.67077 11.4405C8.76274 11.3467 8.88793 11.2928 9.01928 11.2906C9.15064 11.2883 9.27759 11.3379 9.3727 11.4285C9.74612 11.7956 10.2491 12.0009 10.7727 12C11.3177 12 11.8112 11.7825 12.1727 11.4285ZM9.02271 8.5C9.22162 8.5 9.41238 8.57902 9.55304 8.71967C9.69369 8.86032 9.77271 9.05109 9.77271 9.25C9.77271 9.44891 9.69369 9.63968 9.55304 9.78033C9.41238 9.92098 9.22162 10 9.02271 10C8.82379 10 8.63303 9.92098 8.49237 9.78033C8.35172 9.63968 8.27271 9.44891 8.27271 9.25C8.27271 9.05109 8.35172 8.86032 8.49237 8.71967C8.63303 8.57902 8.82379 8.5 9.02271 8.5ZM12.5227 8.5C12.7216 8.5 12.9124 8.57902 13.053 8.71967C13.1937 8.86032 13.2727 9.05109 13.2727 9.25C13.2727 9.44891 13.1937 9.63968 13.053 9.78033C12.9124 9.92098 12.7216 10 12.5227 10C12.3238 10 12.133 9.92098 11.9924 9.78033C11.8517 9.63968 11.7727 9.44891 11.7727 9.25C11.7727 9.05109 11.8517 8.86032 11.9924 8.71967C12.133 8.57902 12.3238 8.5 12.5227 8.5Z" fill="#FF2524"/>
</g>
<defs>
<clipPath id="clip0_256_1209">
<rect width="12" height="12" fill="white" transform="translate(4.77271 4.5)"/>
</clipPath>
</defs>
</svg>
