<svg width="80" height="80" viewBox="0 0 80 80" fill="none" xmlns="http://www.w3.org/2000/svg">
<path d="M40.0001 6.6665C58.4101 6.6665 73.3334 21.5898 73.3334 39.9998C73.3334 58.4098 58.4101 73.3332 40.0001 73.3332C21.5901 73.3332 6.66675 58.4098 6.66675 39.9998C6.66675 21.5898 21.5901 6.6665 40.0001 6.6665ZM49.4301 25.8565L25.8567 49.4265C25.547 49.7362 25.3014 50.1039 25.1338 50.5085C24.9662 50.9132 24.8799 51.3469 24.8799 51.7848C24.8799 52.6694 25.2313 53.5177 25.8567 54.1432C26.4822 54.7686 27.3305 55.12 28.2151 55.12C29.0996 55.12 29.9479 54.7686 30.5734 54.1432L54.1401 30.5732C54.7656 29.9481 55.1171 29.1002 55.1174 28.216C55.1177 27.3318 54.7668 26.4836 54.1417 25.8582C53.5167 25.2327 52.6688 24.8811 51.7846 24.8808C50.9004 24.8805 50.0522 25.2315 49.4267 25.8565H49.4301Z" fill="#FF2524"/>
</svg>
