<svg width="20" height="20" viewBox="0 0 20 20" fill="none" xmlns="http://www.w3.org/2000/svg">
<g clip-path="url(#clip0_298_2404)">
<path d="M16.6667 7.50018C16.8877 7.50018 17.0996 7.58797 17.2559 7.74425C17.4122 7.90053 17.5 8.1125 17.5 8.33351V9.16684C17.5 10.935 16.7976 12.6306 15.5474 13.8809C14.2971 15.1311 12.6014 15.8335 10.8333 15.8335H7.845L8.50583 16.4943C8.65763 16.6515 8.74163 16.862 8.73973 17.0805C8.73783 17.299 8.65019 17.508 8.49568 17.6625C8.34118 17.817 8.13216 17.9047 7.91367 17.9066C7.69517 17.9085 7.48467 17.8245 7.3275 17.6727L5.2475 15.5927C5.11837 15.4655 5.03438 15.2995 5.00833 15.1202L5 14.9927C5.00136 14.7978 5.07128 14.6095 5.1975 14.461L5.24417 14.411L7.3275 12.3277C7.48467 12.1759 7.69517 12.0919 7.91367 12.0938C8.13216 12.0957 8.34118 12.1833 8.49568 12.3378C8.65019 12.4923 8.73783 12.7013 8.73973 12.9198C8.74163 13.1383 8.65763 13.3488 8.50583 13.506L7.845 14.1668H10.8333C12.1594 14.1668 13.4312 13.6401 14.3689 12.7024C15.3065 11.7647 15.8333 10.4929 15.8333 9.16684V8.33351C15.8333 8.1125 15.9211 7.90053 16.0774 7.74425C16.2337 7.58797 16.4457 7.50018 16.6667 7.50018ZM12.6725 2.32768L14.7558 4.41101C14.9121 4.56728 14.9998 4.77921 14.9998 5.00018C14.9998 5.22115 14.9121 5.43307 14.7558 5.58934L12.6725 7.67268C12.5956 7.75227 12.5037 7.81575 12.402 7.85943C12.3003 7.9031 12.191 7.92609 12.0803 7.92705C11.9697 7.92801 11.86 7.90693 11.7575 7.86503C11.6551 7.82313 11.5621 7.76125 11.4838 7.68301C11.4056 7.60476 11.3437 7.51172 11.3018 7.4093C11.2599 7.30689 11.2388 7.19716 11.2398 7.08651C11.2408 6.97586 11.2637 6.86651 11.3074 6.76484C11.3511 6.66317 11.4146 6.57122 11.4942 6.49434L12.155 5.83351H9.16667C7.84058 5.83351 6.56881 6.36029 5.63113 7.29798C4.69345 8.23566 4.16667 9.50743 4.16667 10.8335V11.6668C4.16667 11.8879 4.07887 12.0998 3.92259 12.2561C3.76631 12.4124 3.55435 12.5002 3.33333 12.5002C3.11232 12.5002 2.90036 12.4124 2.74408 12.2561C2.5878 12.0998 2.5 11.8879 2.5 11.6668V10.8335C2.5 9.0654 3.20238 7.36971 4.45262 6.11946C5.70286 4.86922 7.39856 4.16684 9.16667 4.16684H12.155L11.4942 3.50601C11.3424 3.34884 11.2584 3.13834 11.2603 2.91984C11.2622 2.70134 11.3498 2.49233 11.5043 2.33783C11.6588 2.18332 11.8678 2.09568 12.0863 2.09378C12.3048 2.09188 12.5153 2.17588 12.6725 2.32768Z" fill="white"/>
</g>
<defs>
<clipPath id="clip0_298_2404">
<rect width="20" height="20" fill="white"/>
</clipPath>
</defs>
</svg>
