<svg width="20" height="20" viewBox="0 0 20 20" fill="none" xmlns="http://www.w3.org/2000/svg">
<path fill-rule="evenodd" clip-rule="evenodd" d="M9.99984 4.1665C12.1598 4.1665 14.1548 4.554 15.6415 5.21484C16.3832 5.54484 17.0365 5.959 17.514 6.4615C17.9965 6.9665 18.3332 7.6015 18.3332 8.33317V11.6665C18.3332 12.3982 17.9965 13.0323 17.514 13.5382C17.0365 14.0407 16.384 14.4548 15.6415 14.7848C14.1548 15.4457 12.1598 15.8332 9.99984 15.8332C7.83984 15.8332 5.84484 15.4457 4.35817 14.7848C3.6165 14.4548 2.96317 14.0407 2.48567 13.5382C2.00317 13.0332 1.6665 12.3982 1.6665 11.6665V8.33317C1.6665 7.6015 2.00317 6.96734 2.48567 6.4615C2.96317 5.959 3.61567 5.54484 4.35817 5.21484C5.84484 4.554 7.83984 4.1665 9.99984 4.1665ZM16.6665 10.8998C16.354 11.1048 16.0082 11.2882 15.6415 11.4515C14.1548 12.1123 12.1598 12.4998 9.99984 12.4998C7.83984 12.4998 5.84484 12.1123 4.35817 11.4515C4.00225 11.2954 3.65948 11.1109 3.33317 10.8998V11.6665C3.33317 11.8557 3.4165 12.0982 3.69317 12.3898C3.974 12.6848 4.41984 12.989 5.03484 13.2623C6.26317 13.8082 8.01817 14.1665 9.99984 14.1665C11.9823 14.1665 13.7365 13.8082 14.9648 13.2623C15.5798 12.989 16.0257 12.6848 16.3065 12.3898C16.584 12.0982 16.6665 11.8557 16.6665 11.6665V10.8998ZM9.99984 5.83317C8.01734 5.83317 6.26317 6.1915 5.03484 6.73734C4.41984 7.01067 3.974 7.31484 3.69317 7.60984C3.41567 7.9015 3.33317 8.144 3.33317 8.33317C3.33317 8.52234 3.4165 8.76484 3.69317 9.0565C3.974 9.3515 4.41984 9.65567 5.03484 9.929C6.26317 10.4748 8.01817 10.8332 9.99984 10.8332C11.9823 10.8332 13.7365 10.4748 14.9648 9.929C15.5798 9.65567 16.0257 9.3515 16.3065 9.0565C16.584 8.76484 16.6665 8.52234 16.6665 8.33317C16.6665 8.144 16.5832 7.9015 16.3065 7.60984C16.0257 7.31484 15.5798 7.01067 14.9648 6.73734C13.7365 6.19234 11.9815 5.83317 9.99984 5.83317Z" fill="white"/>
</svg>
