<svg width="40" height="40" viewBox="0 0 40 40" fill="none" xmlns="http://www.w3.org/2000/svg">
<circle cx="20" cy="20" r="20" fill="#E6F6E9"/>
<g clip-path="url(#clip0_195_3966)">
<path fill-rule="evenodd" clip-rule="evenodd" d="M29.1919 14.4647C29.3794 14.6522 29.4847 14.9065 29.4847 15.1717C29.4847 15.4368 29.3794 15.6911 29.1919 15.8787L17.9499 27.1217C17.8478 27.2239 17.7265 27.3049 17.593 27.3602C17.4595 27.4156 17.3164 27.444 17.1719 27.444C17.0275 27.444 16.8844 27.4156 16.7509 27.3602C16.6174 27.3049 16.4961 27.2239 16.3939 27.1217L10.8079 21.5357C10.715 21.4428 10.6413 21.3325 10.5911 21.2111C10.5408 21.0897 10.5149 20.9596 10.5149 20.8282C10.5149 20.6968 10.5408 20.5667 10.5911 20.4453C10.6413 20.3239 10.715 20.2136 10.8079 20.1207C10.9009 20.0278 11.0112 19.9541 11.1326 19.9038C11.2539 19.8535 11.3841 19.8276 11.5154 19.8276C11.6468 19.8276 11.777 19.8535 11.8983 19.9038C12.0197 19.9541 12.13 20.0278 12.2229 20.1207L17.1729 25.0707L27.7769 14.4647C27.9645 14.2772 28.2188 14.1719 28.4839 14.1719C28.7491 14.1719 29.0044 14.2772 29.1919 14.4647Z" fill="#01C259"/>
</g>
<defs>
<clipPath id="clip0_195_3966">
<rect width="24" height="24" fill="white" transform="translate(8 9)"/>
</clipPath>
</defs>
</svg>
