<svg width="40" height="40" viewBox="0 0 40 40" fill="none" xmlns="http://www.w3.org/2000/svg">
<circle cx="20" cy="20" r="20" fill="#F2F2F2"/>
<g clip-path="url(#clip0_171_3624)">
<path fill-rule="evenodd" clip-rule="evenodd" d="M29.43 17.667C29.8081 18.7375 30.0009 19.8647 30 21C30 26.523 25.523 31 20 31C14.477 31 10 26.523 10 21C10 19.833 10.2 18.71 10.57 17.667C10.6109 17.5397 10.677 17.4219 10.7643 17.3206C10.8515 17.2193 10.9582 17.1365 11.078 17.0772C11.1979 17.0178 11.3284 16.9831 11.4618 16.9751C11.5953 16.967 11.729 16.9858 11.8551 17.0304C11.9812 17.0749 12.097 17.1443 12.1958 17.2344C12.2946 17.3245 12.3743 17.4335 12.4303 17.5549C12.4862 17.6764 12.5172 17.8078 12.5214 17.9415C12.5257 18.0751 12.5031 18.2082 12.455 18.333C12.0297 19.5394 11.9 20.8303 12.0766 22.0972C12.2533 23.3642 12.7312 24.5703 13.4702 25.6144C14.2093 26.6585 15.1879 27.5102 16.3241 28.098C17.4602 28.6858 18.7208 28.9925 20 28.9925C21.2792 28.9925 22.5398 28.6858 23.6759 28.098C24.8121 27.5102 25.7907 26.6585 26.5298 25.6144C27.2688 24.5703 27.7467 23.3642 27.9234 22.0972C28.1 20.8303 27.9703 19.5394 27.545 18.333C27.5013 18.2092 27.4824 18.0779 27.4893 17.9468C27.4963 17.8156 27.5291 17.6872 27.5857 17.5687C27.6424 17.4502 27.7218 17.344 27.8195 17.2562C27.9172 17.1684 28.0312 17.1007 28.155 17.057C28.4051 16.9687 28.68 16.9833 28.9193 17.0977C29.1586 17.2121 29.3417 17.4169 29.43 17.667ZM23.396 24.338C23.483 24.4365 23.5497 24.5511 23.5924 24.6754C23.635 24.7996 23.6528 24.9311 23.6446 25.0622C23.6364 25.1934 23.6025 25.3216 23.5447 25.4396C23.487 25.5576 23.4065 25.6631 23.308 25.75C22.3952 26.557 21.2184 27.0017 20 27C18.7816 27.0017 17.6048 26.557 16.692 25.75C16.4931 25.5744 16.3721 25.327 16.3556 25.0622C16.3391 24.7974 16.4284 24.5369 16.604 24.338C16.7796 24.1391 17.027 24.0181 17.2918 24.0016C17.5566 23.9851 17.8171 24.0744 18.016 24.25C18.546 24.718 19.239 25 20 25C20.761 25 21.455 24.718 21.984 24.25C22.0825 24.163 22.1971 24.0963 22.3214 24.0536C22.4456 24.011 22.5771 23.9932 22.7082 24.0014C22.8394 24.0096 22.9676 24.0435 23.0856 24.1013C23.2036 24.159 23.3091 24.2395 23.396 24.338ZM16.5 19C17.587 19 18.457 19.68 18.894 20.552C19.0086 20.7801 19.0316 21.0435 18.9583 21.288C18.885 21.5326 18.721 21.7399 18.4998 21.8674C18.2785 21.9948 18.017 22.0329 17.7686 21.9737C17.5202 21.9145 17.3039 21.7626 17.164 21.549L17.106 21.448C16.944 21.124 16.696 21 16.5 21C16.33 21 16.118 21.095 15.959 21.336L15.894 21.448C15.774 21.683 15.5659 21.861 15.3152 21.9433C15.0644 22.0255 14.7914 22.0053 14.5555 21.8871C14.3195 21.7689 14.1399 21.5622 14.0557 21.3121C13.9715 21.062 13.9896 20.7888 14.106 20.552C14.542 19.68 15.413 19 16.5 19ZM23.5 19C24.587 19 25.457 19.68 25.894 20.552C26.0086 20.7801 26.0316 21.0435 25.9583 21.288C25.885 21.5326 25.721 21.7399 25.4998 21.8674C25.2785 21.9948 25.017 22.0329 24.7686 21.9737C24.5202 21.9145 24.3039 21.7626 24.164 21.549L24.106 21.448C23.944 21.124 23.696 21 23.5 21C23.33 21 23.118 21.095 22.959 21.336L22.894 21.448C22.8358 21.5664 22.7547 21.6722 22.6554 21.7591C22.5562 21.8461 22.4407 21.9126 22.3156 21.9547C22.1905 21.9968 22.0583 22.0137 21.9267 22.0045C21.795 21.9953 21.6665 21.9601 21.5485 21.901C21.4305 21.8418 21.3254 21.7599 21.2392 21.66C21.153 21.56 21.0875 21.444 21.0463 21.3186C21.0052 21.1932 20.9893 21.0609 20.9995 20.9294C21.0098 20.7978 21.046 20.6695 21.106 20.552C21.543 19.68 22.413 19 23.5 19ZM20 11C22.536 11 24.862 11.228 26.58 11.61C27.432 11.799 28.19 12.038 28.758 12.336C29.041 12.486 29.327 12.674 29.553 12.92C29.783 13.17 30 13.536 30 14C30 14.464 29.784 14.83 29.553 15.08C29.323 15.3184 29.0542 15.5158 28.758 15.664C28.189 15.962 27.432 16.201 26.581 16.39C24.862 16.772 22.536 17 20 17C17.464 17 15.138 16.772 13.42 16.39C12.568 16.201 11.81 15.962 11.242 15.664C10.9458 15.5158 10.6769 15.3184 10.447 15.08C10.217 14.83 10 14.464 10 14C10 13.536 10.216 13.17 10.447 12.92C10.673 12.674 10.959 12.485 11.242 12.336C11.811 12.038 12.568 11.799 13.419 11.61C15.138 11.228 17.464 11 20 11ZM20 13C17.565 13 15.391 13.22 13.853 13.562L13.421 13.664C12.316 13.947 12.461 14.129 13.853 14.438C15.391 14.78 17.565 15 20 15C22.435 15 24.609 14.78 26.147 14.438L26.579 14.336C27.684 14.053 27.539 13.871 26.147 13.562C24.609 13.22 22.435 13 20 13Z" fill="#01C259"/>
</g>
<defs>
<clipPath id="clip0_171_3624">
<rect width="24" height="24" fill="white" transform="translate(8 9)"/>
</clipPath>
</defs>
</svg>
