<svg width="22" height="22" viewBox="0 0 22 22" fill="none" xmlns="http://www.w3.org/2000/svg">
<rect width="22" height="22" rx="6" fill="#E6F6E9"/>
<g clip-path="url(#clip0_54_1374)">
<path d="M5.66667 5.6665C5.82996 5.66653 5.98756 5.72647 6.10958 5.83498C6.2316 5.94349 6.30956 6.093 6.32867 6.25517L6.33333 6.33317V14.9998H16.3333C16.5033 15 16.6667 15.0651 16.7902 15.1817C16.9138 15.2984 16.9882 15.4578 16.9981 15.6274C17.0081 15.7971 16.9529 15.9641 16.8438 16.0944C16.7348 16.2247 16.5801 16.3084 16.4113 16.3285L16.3333 16.3332H5.66667C5.50338 16.3331 5.34578 16.2732 5.22375 16.1647C5.10173 16.0562 5.02377 15.9067 5.00467 15.7445L5 15.6665V6.33317C5 6.15636 5.07024 5.98679 5.19526 5.86177C5.32029 5.73674 5.48986 5.6665 5.66667 5.6665ZM16.4627 7.54517C17.0627 7.54517 17.3627 8.2705 16.9387 8.6945L13.2253 12.4078C13.0878 12.5452 12.9014 12.6224 12.707 12.6224C12.5126 12.6224 12.3262 12.5452 12.1887 12.4078L10.35 10.5692L7.99333 12.9258C7.86833 13.0509 7.69875 13.1212 7.5219 13.1213C7.34506 13.1214 7.17543 13.0512 7.05033 12.9262C6.92524 12.8012 6.85493 12.6316 6.85487 12.4547C6.8548 12.2779 6.92499 12.1083 7.05 11.9832L9.83133 9.20184C9.89943 9.1337 9.98029 9.07966 10.0693 9.04278C10.1583 9.00591 10.2537 8.98693 10.35 8.98693C10.4463 8.98693 10.5417 9.00591 10.6307 9.04278C10.7197 9.07966 10.8006 9.1337 10.8687 9.20184L12.7073 11.0405L14.8687 8.8785H14.5927C14.4159 8.8785 14.2463 8.80827 14.1213 8.68324C13.9962 8.55822 13.926 8.38865 13.926 8.21184C13.926 8.03503 13.9962 7.86546 14.1213 7.74043C14.2463 7.61541 14.4159 7.54517 14.5927 7.54517H16.4627Z" fill="#25AD3E"/>
</g>
<defs>
<clipPath id="clip0_54_1374">
<rect width="16" height="16" fill="white" transform="translate(3 3)"/>
</clipPath>
</defs>
</svg>
