<svg width="21" height="12" viewBox="0 0 21 12" fill="none" xmlns="http://www.w3.org/2000/svg">
<path d="M15.0123 0C14.7471 0 14.4927 0.105357 14.3052 0.292893C14.1176 0.48043 14.0123 0.734784 14.0123 1C14.0123 1.26522 14.1176 1.51957 14.3052 1.70711C14.4927 1.89464 14.7471 2 15.0123 2H16.5983L12.0123 6.586L8.21929 2.793C8.03176 2.60553 7.77745 2.50021 7.51229 2.50021C7.24712 2.50021 6.99282 2.60553 6.80529 2.793L0.305288 9.293C0.209778 9.38525 0.133596 9.49559 0.0811869 9.6176C0.0287779 9.7396 0.00119157 9.87082 3.77567e-05 10.0036C-0.00111606 10.1364 0.0241857 10.2681 0.0744666 10.391C0.124747 10.5138 0.199001 10.6255 0.292893 10.7194C0.386786 10.8133 0.498438 10.8875 0.621334 10.9378C0.744231 10.9881 0.87591 11.0134 1.00869 11.0123C1.14147 11.0111 1.27269 10.9835 1.39469 10.9311C1.5167 10.8787 1.62704 10.8025 1.71929 10.707L7.51229 4.914L11.3053 8.707C11.4928 8.89447 11.7471 8.99979 12.0123 8.99979C12.2775 8.99979 12.5318 8.89447 12.7193 8.707L18.0123 3.414V5C18.0123 5.26522 18.1176 5.51957 18.3052 5.70711C18.4927 5.89464 18.7471 6 19.0123 6C19.2775 6 19.5319 5.89464 19.7194 5.70711C19.9069 5.51957 20.0123 5.26522 20.0123 5V1C20.0123 0.734784 19.9069 0.48043 19.7194 0.292893C19.5319 0.105357 19.2775 0 19.0123 0H15.0123Z" fill="white"/>
</svg>
