<svg width="21" height="21" viewBox="0 0 21 21" fill="none" xmlns="http://www.w3.org/2000/svg">
<rect width="21" height="21" rx="10.5" fill="#FFD3D3"/>
<g clip-path="url(#clip0_256_1202)">
<path d="M10.7726 14C10.9052 14 11.0324 14.0527 11.1262 14.1464C11.22 14.2402 11.2726 14.3674 11.2726 14.5V15C11.2726 15.1326 11.22 15.2598 11.1262 15.3536C11.0324 15.4473 10.9052 15.5 10.7726 15.5C10.64 15.5 10.5129 15.4473 10.4191 15.3536C10.3253 15.2598 10.2726 15.1326 10.2726 15V14.5C10.2726 14.3674 10.3253 14.2402 10.4191 14.1464C10.5129 14.0527 10.64 14 10.7726 14ZM13.9546 12.975L14.3081 13.3285C14.3992 13.4228 14.4496 13.5491 14.4485 13.6802C14.4473 13.8113 14.3948 13.9367 14.302 14.0294C14.2093 14.1221 14.0839 14.1747 13.9528 14.1758C13.8217 14.177 13.6954 14.1266 13.6011 14.0355L13.2476 13.682C13.1566 13.5877 13.1062 13.4614 13.1073 13.3303C13.1084 13.1992 13.161 13.0738 13.2537 12.9811C13.3464 12.8884 13.4718 12.8358 13.6029 12.8347C13.734 12.8335 13.8603 12.8839 13.9546 12.975ZM7.59064 12.975C7.68062 12.8853 7.80136 12.8333 7.92833 12.8294C8.05531 12.8255 8.179 12.8701 8.27428 12.9541C8.36956 13.0381 8.42929 13.1553 8.44134 13.2817C8.45339 13.4082 8.41685 13.5345 8.33914 13.635L8.29764 13.682L7.94414 14.0355C7.85416 14.1252 7.73342 14.1772 7.60645 14.1811C7.47947 14.185 7.35578 14.1404 7.2605 14.0564C7.16522 13.9724 7.10549 13.8552 7.09344 13.7288C7.08139 13.6023 7.11793 13.476 7.19564 13.3755L7.23714 13.3285L7.59064 12.975ZM10.7726 7.5C11.5683 7.5 12.3314 7.81607 12.894 8.37868C13.4566 8.94129 13.7726 9.70435 13.7726 10.5C13.7726 11.2956 13.4566 12.0587 12.894 12.6213C12.3314 13.1839 11.5683 13.5 10.7726 13.5C9.97699 13.5 9.21393 13.1839 8.65132 12.6213C8.08871 12.0587 7.77264 11.2956 7.77264 10.5C7.77264 9.70435 8.08871 8.94129 8.65132 8.37868C9.21393 7.81607 9.97699 7.5 10.7726 7.5ZM10.7726 8.5C10.2422 8.5 9.7335 8.71071 9.35843 9.08579C8.98335 9.46086 8.77264 9.96957 8.77264 10.5C8.77264 11.0304 8.98335 11.5391 9.35843 11.9142C9.7335 12.2893 10.2422 12.5 10.7726 12.5C11.3031 12.5 11.8118 12.2893 12.1869 11.9142C12.5619 11.5391 12.7726 11.0304 12.7726 10.5C12.7726 9.96957 12.5619 9.46086 12.1869 9.08579C11.8118 8.71071 11.3031 8.5 10.7726 8.5ZM6.77264 10C6.90008 10.0001 7.02266 10.0489 7.11532 10.1364C7.20799 10.2239 7.26376 10.3435 7.27123 10.4707C7.27869 10.5979 7.2373 10.7232 7.15551 10.8209C7.07371 10.9186 6.95769 10.9814 6.83114 10.9965L6.77264 11H6.27264C6.1452 10.9999 6.02262 10.9511 5.92996 10.8636C5.83729 10.7761 5.78152 10.6565 5.77405 10.5293C5.76658 10.4021 5.80798 10.2768 5.88977 10.1791C5.97157 10.0814 6.08759 10.0186 6.21414 10.0035L6.27264 10H6.77264ZM15.2726 10C15.4052 10 15.5324 10.0527 15.6262 10.1464C15.72 10.2402 15.7726 10.3674 15.7726 10.5C15.7726 10.6326 15.72 10.7598 15.6262 10.8536C15.5324 10.9473 15.4052 11 15.2726 11H14.7726C14.64 11 14.5129 10.9473 14.4191 10.8536C14.3253 10.7598 14.2726 10.6326 14.2726 10.5C14.2726 10.3674 14.3253 10.2402 14.4191 10.1464C14.5129 10.0527 14.64 10 14.7726 10H15.2726ZM7.23714 6.9645C7.32324 6.87841 7.43779 6.8267 7.5593 6.81906C7.68081 6.81141 7.80094 6.84837 7.89714 6.923L7.94414 6.9645L8.29764 7.318C8.38731 7.40798 8.43938 7.52872 8.44325 7.65569C8.44713 7.78267 8.40253 7.90636 8.31852 8.00164C8.2345 8.09692 8.11736 8.15665 7.9909 8.1687C7.86444 8.18075 7.73814 8.14421 7.63764 8.0665L7.59064 8.025L7.23714 7.6715C7.1434 7.57774 7.09075 7.45058 7.09075 7.318C7.09075 7.18542 7.1434 7.05826 7.23714 6.9645ZM14.3081 6.9645C14.4019 7.05826 14.4545 7.18542 14.4545 7.318C14.4545 7.45058 14.4019 7.57774 14.3081 7.6715L13.9546 8.025C13.9085 8.07276 13.8533 8.11085 13.7923 8.13705C13.7313 8.16326 13.6657 8.17705 13.5993 8.17763C13.5329 8.1782 13.4671 8.16555 13.4057 8.14041C13.3442 8.11527 13.2884 8.07814 13.2414 8.0312C13.1945 7.98425 13.1574 7.92843 13.1322 7.86698C13.1071 7.80553 13.0944 7.73969 13.095 7.6733C13.0956 7.60691 13.1094 7.5413 13.1356 7.4803C13.1618 7.4193 13.1999 7.36412 13.2476 7.318L13.6011 6.9645C13.6949 6.87076 13.8221 6.81811 13.9546 6.81811C14.0872 6.81811 14.2144 6.87076 14.3081 6.9645ZM10.7726 5.5C10.9052 5.5 11.0324 5.55268 11.1262 5.64645C11.22 5.74021 11.2726 5.86739 11.2726 6V6.5C11.2726 6.63261 11.22 6.75979 11.1262 6.85355C11.0324 6.94732 10.9052 7 10.7726 7C10.64 7 10.5129 6.94732 10.4191 6.85355C10.3253 6.75979 10.2726 6.63261 10.2726 6.5V6C10.2726 5.86739 10.3253 5.74021 10.4191 5.64645C10.5129 5.55268 10.64 5.5 10.7726 5.5Z" fill="#FF2524"/>
</g>
<defs>
<clipPath id="clip0_256_1202">
<rect width="12" height="12" fill="white" transform="translate(4.77271 4.5)"/>
</clipPath>
</defs>
</svg>
