<svg width="20" height="22" viewBox="0 0 20 22" fill="none" xmlns="http://www.w3.org/2000/svg">
<rect width="20" height="22" rx="6" fill="#E8F0FF"/>
<g clip-path="url(#clip0_54_1395)">
<g clip-path="url(#clip1_54_1395)">
<path d="M10 4.3335C10.5947 4.3335 11.34 4.40883 11.9607 4.61883C12.27 4.72283 12.594 4.8755 12.8513 5.1075C13.122 5.35083 13.3333 5.69883 13.3333 6.14283C13.3333 6.57083 13.1373 6.92416 12.902 7.18683C12.7699 7.3324 12.6216 7.46235 12.46 7.57416C14.45 8.52283 16 10.5568 16 13.0002C16 14.7042 15.32 15.9242 14.156 16.6835C13.0393 17.4115 11.5533 17.6668 10 17.6668C8.44667 17.6668 6.96 17.4115 5.844 16.6835C4.68 15.9242 4 14.7035 4 13.0002C4 10.5568 5.55 8.52283 7.54 7.57416C7.37838 7.46258 7.23008 7.33284 7.098 7.1875C6.86267 6.9235 6.66667 6.57016 6.66667 6.14216C6.66667 5.69816 6.878 5.35016 7.14867 5.10683C7.406 4.87483 7.73 4.72216 8.03933 4.61816C8.66 4.40883 9.40533 4.3335 10 4.3335ZM10 8.3335C7.67467 8.3335 5.33333 10.3948 5.33333 13.0002C5.33333 14.2962 5.82 15.0762 6.57267 15.5668C7.37267 16.0888 8.55333 16.3335 10 16.3335C11.4467 16.3335 12.6267 16.0888 13.4273 15.5668C14.18 15.0762 14.6667 14.2962 14.6667 13.0002C14.6667 10.3948 12.3253 8.3335 10 8.3335ZM11.298 10.0708C11.456 10.1499 11.5762 10.2885 11.632 10.4562C11.6879 10.6238 11.6749 10.8067 11.596 10.9648L11.2453 11.6668H11.3333C11.5101 11.6668 11.6797 11.7371 11.8047 11.8621C11.9298 11.9871 12 12.1567 12 12.3335C12 12.5103 11.9298 12.6799 11.8047 12.8049C11.6797 12.9299 11.5101 13.0002 11.3333 13.0002H10.6667V13.3335H11.3333C11.5101 13.3335 11.6797 13.4037 11.8047 13.5288C11.9298 13.6538 12 13.8234 12 14.0002C12 14.177 11.9298 14.3465 11.8047 14.4716C11.6797 14.5966 11.5101 14.6668 11.3333 14.6668H10.6667V15.0002C10.6667 15.177 10.5964 15.3465 10.4714 15.4716C10.3464 15.5966 10.1768 15.6668 10 15.6668C9.82319 15.6668 9.65362 15.5966 9.5286 15.4716C9.40357 15.3465 9.33333 15.177 9.33333 15.0002V14.6668H8.66667C8.48986 14.6668 8.32029 14.5966 8.19526 14.4716C8.07024 14.3465 8 14.177 8 14.0002C8 13.8234 8.07024 13.6538 8.19526 13.5288C8.32029 13.4037 8.48986 13.3335 8.66667 13.3335H9.33333V13.0002H8.66667C8.48986 13.0002 8.32029 12.9299 8.19526 12.8049C8.07024 12.6799 8 12.5103 8 12.3335C8 12.1567 8.07024 11.9871 8.19526 11.8621C8.32029 11.7371 8.48986 11.6668 8.66667 11.6668H8.75467L8.404 10.9648C8.36162 10.8862 8.33546 10.7999 8.32707 10.7111C8.31868 10.6222 8.32823 10.5325 8.35515 10.4474C8.38207 10.3623 8.42582 10.2834 8.48379 10.2155C8.54177 10.1476 8.61279 10.092 8.69264 10.0521C8.7725 10.0122 8.85956 9.98871 8.94867 9.98307C9.03777 9.97743 9.1271 9.98974 9.21135 10.0193C9.29561 10.0488 9.37307 10.095 9.43914 10.155C9.50522 10.2151 9.55856 10.2878 9.596 10.3688L10 11.1755L10.404 10.3688C10.4831 10.2108 10.6217 10.0907 10.7893 10.0348C10.957 9.97892 11.1399 9.99188 11.298 10.0708ZM10 5.66683C9.49 5.66683 8.902 5.73416 8.466 5.8815C8.246 5.95616 8.11067 6.03483 8.04067 6.09816L8.006 6.13483C8.00382 6.13782 8.00181 6.14094 8 6.14416L8.00467 6.1655C8.02429 6.21532 8.05377 6.26067 8.09133 6.29883C8.18467 6.40283 8.34133 6.5215 8.55933 6.63416C8.99933 6.86216 9.56133 7.00016 10 7.00016C10.4387 7.00016 11.0013 6.86216 11.4407 6.63416C11.6587 6.5215 11.8147 6.40283 11.9087 6.29816C11.9462 6.2602 11.9756 6.21508 11.9953 6.1655L12 6.14416L11.9813 6.12016C11.9743 6.11249 11.967 6.10515 11.9593 6.09816C11.8893 6.0355 11.754 5.95616 11.534 5.8815C11.098 5.73483 10.51 5.66683 10 5.66683Z" fill="#1969FE"/>
</g>
</g>
<defs>
<clipPath id="clip0_54_1395">
<rect width="16" height="16" fill="white" transform="translate(2 3)"/>
</clipPath>
<clipPath id="clip1_54_1395">
<rect width="16" height="16" fill="white" transform="translate(2 3)"/>
</clipPath>
</defs>
</svg>
