<svg width="35" height="35" viewBox="0 0 35 35" fill="none" xmlns="http://www.w3.org/2000/svg">
<rect width="35" height="35" rx="17.5" fill="#E8F0FF"/>
<g clip-path="url(#clip0_109_785)">
<path fill-rule="evenodd" clip-rule="evenodd" d="M12.7272 14.3186C12.7272 13.0528 13.2301 11.8389 14.1251 10.9438C15.0202 10.0487 16.2342 9.5459 17.5 9.5459C18.7658 9.5459 19.9797 10.0487 20.8748 10.9438C21.7699 11.8389 22.2727 13.0528 22.2727 14.3186H23.0682C23.4901 14.3186 23.8947 14.4862 24.1931 14.7846C24.4915 15.0829 24.6591 15.4876 24.6591 15.9095V23.8641C24.6591 24.286 24.4915 24.6907 24.1931 24.989C23.8947 25.2874 23.4901 25.455 23.0682 25.455H11.9318C11.5099 25.455 11.1052 25.2874 10.8068 24.989C10.5085 24.6907 10.3409 24.286 10.3409 23.8641V15.9095C10.3409 15.4876 10.5085 15.0829 10.8068 14.7846C11.1052 14.4862 11.5099 14.3186 11.9318 14.3186H12.7272ZM17.5 11.1368C18.3438 11.1368 19.1532 11.472 19.7499 12.0687C20.3466 12.6654 20.6818 13.4748 20.6818 14.3186H14.3182C14.3182 13.4748 14.6534 12.6654 15.2501 12.0687C15.8468 11.472 16.6561 11.1368 17.5 11.1368ZM19.0909 19.0914C19.0909 19.3706 19.0174 19.6449 18.8777 19.8868C18.7381 20.1286 18.5373 20.3295 18.2954 20.4691V21.4777C18.2954 21.6887 18.2116 21.891 18.0624 22.0402C17.9133 22.1894 17.7109 22.2732 17.5 22.2732C17.289 22.2732 17.0867 22.1894 16.9375 22.0402C16.7883 21.891 16.7045 21.6887 16.7045 21.4777V20.4691C16.4012 20.294 16.1642 20.0237 16.0302 19.7001C15.8962 19.3766 15.8727 19.0179 15.9633 18.6796C16.054 18.3413 16.2537 18.0424 16.5315 17.8292C16.8094 17.616 17.1498 17.5005 17.5 17.5004C17.9219 17.5004 18.3266 17.6681 18.6249 17.9664C18.9233 18.2648 19.0909 18.6694 19.0909 19.0914Z" fill="#1969FE"/>
</g>
<defs>
<clipPath id="clip0_109_785">
<rect width="19.0909" height="19.0909" fill="white" transform="translate(7.95453 7.95508)"/>
</clipPath>
</defs>
</svg>
