<svg width="21" height="21" viewBox="0 0 21 21" fill="none" xmlns="http://www.w3.org/2000/svg">
<rect width="21" height="21" rx="10.5" fill="#E6F6E9"/>
<g clip-path="url(#clip0_239_7226)">
<path fill-rule="evenodd" clip-rule="evenodd" d="M7.63641 8.59069C7.63641 7.8312 7.93811 7.10283 8.47515 6.56579C9.01218 6.02875 9.74056 5.72705 10.5 5.72705C11.2595 5.72705 11.9879 6.02875 12.5249 6.56579C13.062 7.10283 13.3637 7.8312 13.3637 8.59069H13.841C14.0941 8.59069 14.3369 8.69126 14.5159 8.87027C14.6949 9.04928 14.7955 9.29207 14.7955 9.54523V14.318C14.7955 14.5711 14.6949 14.8139 14.5159 14.9929C14.3369 15.1719 14.0941 15.2725 13.841 15.2725H7.15914C6.90597 15.2725 6.66318 15.1719 6.48417 14.9929C6.30516 14.8139 6.20459 14.5711 6.20459 14.318V9.54523C6.20459 9.29207 6.30516 9.04928 6.48417 8.87027C6.66318 8.69126 6.90597 8.59069 7.15914 8.59069H7.63641ZM10.5 6.6816C11.0064 6.6816 11.492 6.88273 11.85 7.24076C12.208 7.59878 12.4091 8.08436 12.4091 8.59069H8.59095C8.59095 8.08436 8.79209 7.59878 9.15011 7.24076C9.50814 6.88273 9.99372 6.6816 10.5 6.6816ZM11.4546 11.4543C11.4546 11.6219 11.4105 11.7865 11.3267 11.9316C11.2429 12.0767 11.1224 12.1972 10.9773 12.281V12.8861C10.9773 13.0127 10.927 13.1341 10.8375 13.2236C10.748 13.3131 10.6266 13.3634 10.5 13.3634C10.3735 13.3634 10.2521 13.3131 10.1626 13.2236C10.0731 13.1341 10.0228 13.0127 10.0228 12.8861V12.281C9.84081 12.1759 9.6986 12.0137 9.61819 11.8196C9.53779 11.6255 9.52368 11.4102 9.57807 11.2073C9.63245 11.0043 9.75228 10.825 9.91898 10.697C10.0857 10.5691 10.2899 10.4998 10.5 10.4998C10.7532 10.4998 10.996 10.6003 11.175 10.7794C11.354 10.9584 11.4546 11.2012 11.4546 11.4543Z" fill="#7BCD8A"/>
</g>
<defs>
<clipPath id="clip0_239_7226">
<rect width="11.4545" height="11.4545" fill="white" transform="translate(4.77271 4.77295)"/>
</clipPath>
</defs>
</svg>
