<svg width="40" height="40" viewBox="0 0 40 40" fill="none" xmlns="http://www.w3.org/2000/svg">
<rect width="40" height="40" rx="20" fill="#F2F2F2"/>
<g clip-path="url(#clip0_154_1722)">
<path d="M12.7833 15.8334C15.0842 11.8476 20.1808 10.4834 24.1667 12.7834C25.7458 13.695 26.9826 15.0993 27.6873 16.781C28.392 18.4627 28.5259 20.3292 28.0683 22.0942C27.8875 22.7876 27.05 22.9892 26.5617 22.5367L26.4917 22.4642L24.615 20.3084C24.0442 19.6526 24.6217 18.6651 25.4458 18.8001L25.5375 18.8192L26.6058 19.0984C26.4006 17.5981 25.6906 16.2124 24.5929 15.1693C23.4952 14.1263 22.0751 13.488 20.5663 13.3595C19.0575 13.231 17.5499 13.6201 16.2916 14.4626C15.0333 15.305 14.0994 16.5508 13.6434 17.9948C13.1875 19.4388 13.2367 20.995 13.783 22.4073C14.3293 23.8196 15.3401 25.0038 16.6491 25.7651C17.9581 26.5263 19.4873 26.8193 20.9849 26.5958C22.4826 26.3722 23.8596 25.6454 24.8892 24.5351C24.963 24.4529 25.0524 24.3863 25.1522 24.339C25.252 24.2918 25.3602 24.2648 25.4706 24.2597C25.5809 24.2547 25.6911 24.2716 25.7948 24.3094C25.8986 24.3473 25.9937 24.4055 26.0748 24.4805C26.1559 24.5555 26.2212 24.6458 26.2671 24.7463C26.3129 24.8468 26.3383 24.9553 26.3418 25.0657C26.3453 25.1761 26.3269 25.2861 26.2875 25.3892C26.2481 25.4924 26.1886 25.5867 26.1125 25.6667C23.5275 28.4592 19.2692 29.2001 15.8333 27.2167C11.8475 24.9167 10.4833 19.8192 12.7833 15.8334ZM20 15.0001C20.2041 15.0001 20.4011 15.075 20.5537 15.2107C20.7062 15.3463 20.8036 15.5332 20.8275 15.7359L20.8333 15.8334V19.6551L23.0892 21.9109C23.2386 22.0609 23.3254 22.2621 23.3319 22.4737C23.3383 22.6853 23.264 22.8915 23.124 23.0503C22.9839 23.2091 22.7887 23.3087 22.5779 23.3287C22.3672 23.3488 22.1567 23.2879 21.9892 23.1584L21.9108 23.0892L19.4108 20.5892C19.2813 20.4596 19.1981 20.2909 19.1742 20.1092L19.1667 20.0001V15.8334C19.1667 15.6124 19.2545 15.4004 19.4108 15.2441C19.567 15.0879 19.779 15.0001 20 15.0001Z" fill="#01C259"/>
</g>
<defs>
<clipPath id="clip0_154_1722">
<rect width="20" height="20" fill="white" transform="translate(10 10)"/>
</clipPath>
</defs>
</svg>
