<svg width="24" height="24" viewBox="0 0 24 24" fill="none" xmlns="http://www.w3.org/2000/svg">
<path d="M16.035 3.01468C16.5735 2.47608 17.2967 2.16244 18.0578 2.13737C18.819 2.1123 19.5613 2.37768 20.134 2.87968L20.278 3.01468L20.985 3.72168C21.5233 4.2601 21.8368 4.98306 21.8619 5.74402C21.8869 6.50498 21.6217 7.247 21.12 7.81968L20.985 7.96368L9.77302 19.1767C9.61449 19.3352 9.42245 19.4562 9.21102 19.5307L9.04902 19.5777L4.59502 20.6057C4.43898 20.6417 4.27657 20.6398 4.12143 20.6001C3.96628 20.5604 3.82293 20.484 3.70341 20.3775C3.58389 20.2709 3.49168 20.1372 3.43454 19.9875C3.3774 19.8379 3.35699 19.6768 3.37502 19.5177L3.39502 19.4047L4.42202 14.9497C4.47275 14.7312 4.57185 14.5268 4.71202 14.3517L4.82302 14.2267L16.035 3.01468ZM15.328 6.54968L6.33802 15.5397L5.70202 18.2977L8.46002 17.6607L17.45 8.67068L15.328 6.54968ZM18.864 4.42868C18.6918 4.25651 18.4627 4.15308 18.2197 4.13779C17.9767 4.12251 17.7364 4.19643 17.544 4.34568L17.45 4.42868L16.742 5.13568L18.864 7.25668L19.571 6.54968C19.7432 6.37749 19.8466 6.14839 19.8619 5.90536C19.8772 5.66234 19.8033 5.42209 19.654 5.22968L19.571 5.13568L18.864 4.42868Z" fill="#909090"/>
</svg>
