<svg width="24" height="24" viewBox="0 0 24 24" fill="none" xmlns="http://www.w3.org/2000/svg">
<g clip-path="url(#clip0_493_2945)">
<path d="M8.667 2.56969C8.80811 2.51978 8.95863 2.50218 9.10745 2.5182C9.25627 2.53422 9.3996 2.58344 9.52686 2.66223C9.65412 2.74103 9.76207 2.84739 9.84275 2.97346C9.92343 3.09954 9.97477 3.24212 9.993 3.39069L10 3.51169V11.9997C9.99984 12.5043 10.1904 12.9903 10.5335 13.3602C10.8766 13.7302 11.3468 13.9568 11.85 13.9947L12 13.9997H20.488C20.648 13.9997 20.8056 14.038 20.9476 14.1115C21.0897 14.1851 21.2121 14.2916 21.3044 14.4222C21.3968 14.5527 21.4565 14.7036 21.4786 14.862C21.5006 15.0205 21.4843 15.1819 21.431 15.3327C20.058 19.2157 16.356 21.9997 12 21.9997C6.477 21.9997 2 17.5227 2 11.9997C2 7.64369 4.784 3.94169 8.667 2.56969ZM12.989 2.05469L13.109 2.06069C15.3641 2.31291 17.4664 3.32428 19.0709 4.9288C20.6754 6.53331 21.6868 8.63563 21.939 10.8907C21.9678 11.1523 21.8923 11.4147 21.7288 11.621C21.5654 11.8273 21.3272 11.9608 21.066 11.9927L20.946 11.9997H13C12.7551 11.9997 12.5187 11.9097 12.3356 11.747C12.1526 11.5842 12.0357 11.3599 12.007 11.1167L12 10.9997V3.05469C12 2.79137 12.1038 2.53866 12.289 2.35144C12.4742 2.16422 12.7257 2.05758 12.989 2.05469Z" fill="#909090"/>
</g>
<defs>
<clipPath id="clip0_493_2945">
<rect width="24" height="24" fill="white"/>
</clipPath>
</defs>
</svg>
