<svg width="20" height="22" viewBox="0 0 20 22" fill="none" xmlns="http://www.w3.org/2000/svg">
<rect width="20" height="22" rx="6" fill="#F0EEFA"/>
<g clip-path="url(#clip0_54_1364)">
<path d="M9.66667 5C10.322 5.00005 10.9594 5.2146 11.4813 5.61089C12.0033 6.00718 12.3812 6.56342 12.5573 7.19467L12.592 7.33133L13.8387 7.02C13.9298 6.99732 14.0247 6.99414 14.1171 7.01068C14.2095 7.02722 14.2974 7.0631 14.375 7.11597C14.4526 7.16884 14.5182 7.2375 14.5674 7.31747C14.6166 7.39744 14.6484 7.4869 14.6607 7.58L14.6667 7.66667V8.87333C15.0425 9.23369 15.3505 9.65867 15.576 10.128L15.668 10.3333H16C16.1633 10.3334 16.3209 10.3933 16.4429 10.5018C16.5649 10.6103 16.6429 10.7598 16.662 10.922L16.6667 11V13C16.6667 13.1097 16.6396 13.2178 16.5879 13.3145C16.5361 13.4113 16.4613 13.4938 16.37 13.5547L16.298 13.596L15.5193 13.986C15.2006 14.6027 14.7388 15.1342 14.1727 15.536L14 15.652V16.3333C14 16.4966 13.94 16.6542 13.8315 16.7762C13.723 16.8983 13.5735 16.9762 13.4113 16.9953L13.3333 17H11.3333C11.17 17 11.0124 16.94 10.8904 16.8315C10.7684 16.723 10.6904 16.5735 10.6713 16.4113L10.6667 16.3333H10C9.99998 16.4966 9.94003 16.6542 9.83152 16.7762C9.72302 16.8983 9.5735 16.9762 9.41133 16.9953L9.33333 17H7.33333C7.17004 17 7.01244 16.94 6.89042 16.8315C6.76839 16.723 6.69044 16.5735 6.67133 16.4113L6.66667 16.3333V15.652C6.18505 15.3441 5.76903 14.9441 5.44251 14.4749C5.11599 14.0057 4.8854 13.4766 4.764 12.918C4.37088 12.801 4.02321 12.566 3.76803 12.2449C3.51286 11.9238 3.36251 11.5321 3.33733 11.1227L3.33333 11V10.6667C3.33352 10.4967 3.39858 10.3333 3.51523 10.2098C3.63188 10.0862 3.7913 10.0118 3.96093 10.0019C4.13056 9.99193 4.29759 10.0471 4.42789 10.1562C4.55819 10.2652 4.64193 10.4199 4.662 10.5887L4.66667 10.6667V11C4.66667 11.0987 4.688 11.1927 4.72667 11.2767C4.82842 10.6765 5.05542 10.1044 5.39288 9.59778C5.73035 9.09112 6.17072 8.6612 6.68533 8.336C6.63803 7.91632 6.67987 7.49139 6.80812 7.089C6.93637 6.68661 7.14814 6.31583 7.42956 6.00092C7.71099 5.68602 8.05573 5.43408 8.44124 5.2616C8.82675 5.08911 9.24433 4.99997 9.66667 5ZM13.3333 8.52L11.4947 8.98L11.4147 8.99533L11.3333 9H9C8.32591 8.99956 7.67132 9.22615 7.14177 9.64324C6.61221 10.0603 6.23856 10.6436 6.08106 11.299C5.92356 11.9545 5.99138 12.6438 6.2736 13.256C6.55582 13.8682 7.03598 14.3674 7.63666 14.6733C7.73345 14.7228 7.81666 14.7952 7.87906 14.8842C7.94146 14.9732 7.98115 15.0761 7.99466 15.184L8 15.2667V15.6667H8.66667C8.66669 15.5034 8.72664 15.3458 8.83514 15.2238C8.94365 15.1017 9.09316 15.0238 9.25533 15.0047L9.33333 15H11.3333C11.4966 15 11.6542 15.06 11.7762 15.1685C11.8983 15.277 11.9762 15.4265 11.9953 15.5887L12 15.6667H12.6667V15.2667C12.6667 15.1439 12.7007 15.0235 12.7648 14.9188C12.8289 14.8142 12.9207 14.7292 13.03 14.6733C13.6417 14.3602 14.1282 13.8474 14.4087 13.22C14.4587 13.1078 14.5387 13.0116 14.64 12.942L14.7193 12.8953L15.3333 12.588V11.6667H15.1953C15.0502 11.6666 14.909 11.6192 14.7932 11.5316C14.6775 11.444 14.5935 11.321 14.554 11.1813C14.3872 10.5949 14.0459 10.0731 13.5753 9.68533C13.4448 9.57748 13.3602 9.42398 13.3387 9.256L13.3333 9.17133V8.52ZM12.6667 10.3333C12.8435 10.3333 13.013 10.4036 13.1381 10.5286C13.2631 10.6536 13.3333 10.8232 13.3333 11C13.3333 11.1768 13.2631 11.3464 13.1381 11.4714C13.013 11.5964 12.8435 11.6667 12.6667 11.6667C12.4899 11.6667 12.3203 11.5964 12.1953 11.4714C12.0702 11.3464 12 11.1768 12 11C12 10.8232 12.0702 10.6536 12.1953 10.5286C12.3203 10.4036 12.4899 10.3333 12.6667 10.3333ZM9.66667 6.33333C9.26286 6.33333 8.87279 6.47993 8.56894 6.74589C8.26509 7.01185 8.06813 7.37908 8.01467 7.77933C8.33774 7.70431 8.66833 7.66651 9 7.66667H11.2513L11.298 7.65533C11.2189 7.28131 11.0137 6.94583 10.7167 6.70513C10.4197 6.46444 10.049 6.33317 9.66667 6.33333Z" fill="#6A59CE"/>
</g>
<defs>
<clipPath id="clip0_54_1364">
<rect width="16" height="16" fill="white" transform="translate(2 3)"/>
</clipPath>
</defs>
</svg>
