<svg width="44" height="44" viewBox="0 0 44 44" fill="none" xmlns="http://www.w3.org/2000/svg">
<path d="M40.5404 16.9295C39.7744 16.1301 38.983 15.3053 38.6648 14.5373C38.3702 13.8244 38.3545 12.7698 38.3368 11.6542C38.3093 9.81202 38.2779 7.72628 36.8795 6.32793C35.4812 4.92958 33.3876 4.89816 31.5532 4.87066C30.4377 4.85298 29.3929 4.83727 28.6701 4.54268C27.9022 4.22451 27.0773 3.43303 26.278 2.66708C24.9739 1.41799 23.497 0 21.6037 0C19.7105 0 18.2335 1.41799 16.9295 2.66708C16.1301 3.43303 15.3053 4.22451 14.5373 4.54268C13.8244 4.83727 12.7698 4.85298 11.6542 4.87066C9.81202 4.89816 7.72628 4.92958 6.32793 6.32793C4.92958 7.72628 4.89816 9.81988 4.87066 11.6542C4.85298 12.7698 4.83727 13.8146 4.54268 14.5373C4.22451 15.3053 3.43303 16.1301 2.66708 16.9295C1.41799 18.2335 0 19.7105 0 21.6037C0 23.497 1.41799 24.9739 2.66708 26.278C3.43303 27.0773 4.22451 27.9022 4.54268 28.6701C4.83727 29.383 4.85298 30.4377 4.87066 31.5532C4.89816 33.3954 4.92958 35.4812 6.32793 36.8795C7.72628 38.2779 9.81988 38.3093 11.6542 38.3368C12.7698 38.3545 13.8146 38.3702 14.5373 38.6648C15.3053 38.983 16.1301 39.7744 16.9295 40.5404C18.2335 41.7895 19.7105 43.2075 21.6037 43.2075C23.497 43.2075 24.9739 41.7895 26.278 40.5404C27.0773 39.7744 27.9022 38.983 28.6701 38.6648C29.383 38.3702 30.4377 38.3545 31.5532 38.3368C33.3954 38.3093 35.4812 38.2779 36.8795 36.8795C38.2779 35.4812 38.3093 33.3954 38.3368 31.5532C38.3545 30.4377 38.3702 29.3929 38.6648 28.6701C38.983 27.9022 39.7744 27.0773 40.5404 26.278C41.7895 24.9739 43.2075 23.497 43.2075 21.6037C43.2075 19.7105 41.7895 18.2335 40.5404 16.9295ZM38.8396 24.6479C37.9224 25.6024 36.9738 26.5922 36.4828 27.7706C36.0154 28.8979 35.9957 30.2295 35.9761 31.5179C35.9545 32.9791 35.9309 34.4913 35.2102 35.2141C34.4894 35.9368 32.9752 35.9584 31.514 35.98C30.2256 35.9997 28.894 36.0193 27.7667 36.4867C26.5883 36.9738 25.6063 37.9224 24.642 38.8435C23.6109 39.8255 22.5445 40.8546 21.5998 40.8546C20.6551 40.8546 19.5887 39.8314 18.5556 38.8435C17.6012 37.9263 16.6113 36.9777 15.4329 36.4867C14.3056 36.0193 12.974 35.9997 11.6857 35.98C10.2245 35.9584 8.7122 35.9349 7.98945 35.2141C7.26671 34.4933 7.24511 32.9791 7.2235 31.5179C7.20386 30.2295 7.18422 28.8979 6.7168 27.7706C6.22973 26.5922 5.28113 25.6102 4.36003 24.6459C3.38 23.6148 2.35677 22.5484 2.35677 21.6037C2.35677 20.6591 3.38 19.5926 4.36788 18.5596C5.28506 17.6051 6.23366 16.6152 6.72465 15.4368C7.19208 14.3095 7.21172 12.978 7.23136 11.6896C7.25296 10.2284 7.27653 8.71612 7.99731 7.99338C8.71809 7.27064 10.2323 7.24903 11.6935 7.22743C12.9819 7.20779 14.3135 7.18815 15.4408 6.72073C16.6192 6.23366 17.6012 5.28506 18.5655 4.36395C19.5926 3.38 20.6591 2.35677 21.6037 2.35677C22.5484 2.35677 23.6148 3.38 24.6479 4.36788C25.6024 5.28506 26.5922 6.23366 27.7706 6.72465C28.8979 7.19208 30.2295 7.21172 31.5179 7.23136C32.9791 7.25296 34.4913 7.27653 35.2141 7.99731C35.9368 8.71809 35.9584 10.2323 35.98 11.6935C35.9997 12.9819 36.0193 14.3135 36.4867 15.4408C36.9738 16.6192 37.9224 17.6012 38.8435 18.5655C39.8255 19.5965 40.8546 20.663 40.8546 21.6077C40.8546 22.5523 39.8275 23.6148 38.8396 24.6479ZM30.2924 16.0575C30.513 16.2784 30.637 16.5779 30.637 16.8902C30.637 17.2025 30.513 17.502 30.2924 17.7229L19.2941 28.7212C19.0731 28.9419 18.7736 29.0658 18.4614 29.0658C18.1491 29.0658 17.8496 28.9419 17.6286 28.7212L12.9151 24.0076C12.707 23.7843 12.5936 23.4888 12.599 23.1835C12.6044 22.8782 12.7281 22.587 12.944 22.3711C13.1599 22.1552 13.4512 22.0315 13.7564 22.0261C14.0617 22.0207 14.3572 22.134 14.5806 22.3422L18.4614 26.221L28.6269 16.0575C28.8479 15.8368 29.1474 15.7128 29.4596 15.7128C29.7719 15.7128 30.0714 15.8368 30.2924 16.0575Z" fill="#E9E9E9"/>
</svg>
