<svg width="16" height="16" viewBox="0 0 16 16" fill="none" xmlns="http://www.w3.org/2000/svg">
<g clip-path="url(#clip0_428_146)">
<path fill-rule="evenodd" clip-rule="evenodd" d="M6.64333 1.87245C6.51054 1.77533 6.35598 1.71223 6.19316 1.68863C6.03035 1.66504 5.86423 1.68169 5.70933 1.73711C4.98507 2.00243 4.31241 2.39155 3.72133 2.88711C3.5961 2.99344 3.49879 3.1288 3.4379 3.28137C3.37701 3.43395 3.35438 3.59911 3.372 3.76245C3.422 4.26445 3.33333 4.74911 3.092 5.16645C2.85133 5.58445 2.47533 5.90378 2.01533 6.11111C1.8649 6.17775 1.73307 6.28022 1.63138 6.40957C1.5297 6.53891 1.46124 6.6912 1.432 6.85311C1.30032 7.61189 1.30032 8.38767 1.432 9.14645C1.494 9.50445 1.73867 9.76378 2.01533 9.88911C2.47533 10.0958 2.85133 10.4158 3.09267 10.8331C3.33333 11.2511 3.422 11.7351 3.372 12.2371C3.342 12.5384 3.44333 12.8798 3.72133 13.1124C4.3124 13.608 4.98507 13.9971 5.70933 14.2624C5.86413 14.3178 6.03013 14.3344 6.19283 14.3108C6.35553 14.2872 6.50997 14.2242 6.64266 14.1271C7.05266 13.8324 7.51733 13.6664 8 13.6664C8.48267 13.6664 8.94666 13.8324 9.35666 14.1271C9.60333 14.3044 9.95 14.3871 10.2907 14.2624C11.0149 13.9971 11.6876 13.608 12.2787 13.1124C12.5567 12.8798 12.6587 12.5391 12.628 12.2371C12.578 11.7351 12.666 11.2504 12.908 10.8331C13.1487 10.4151 13.5247 10.0964 13.9847 9.88911C14.2607 9.76445 14.506 9.50445 14.568 9.14645C14.6996 8.38767 14.6996 7.61189 14.568 6.85311C14.5388 6.6912 14.4703 6.53891 14.3686 6.40957C14.2669 6.28022 14.1351 6.17775 13.9847 6.11111C13.5247 5.90378 13.1487 5.58445 12.9073 5.16645C12.666 4.74911 12.578 4.26445 12.628 3.76245C12.6456 3.59912 12.6229 3.43398 12.562 3.28141C12.5011 3.12884 12.4039 2.99348 12.2787 2.88711C11.6876 2.39155 11.0149 2.00243 10.2907 1.73711C10.1359 1.6818 9.96987 1.66522 9.80718 1.68881C9.64449 1.7124 9.49005 1.77545 9.35733 1.87245C8.94667 2.16645 8.482 2.33311 8 2.33311C7.518 2.33311 7.05333 2.16711 6.64333 1.87245ZM6 7.99978C6 7.46935 6.21071 6.96064 6.58578 6.58557C6.96086 6.21049 7.46957 5.99978 8 5.99978C8.53043 5.99978 9.03914 6.21049 9.41421 6.58557C9.78928 6.96064 10 7.46935 10 7.99978C10 8.53021 9.78928 9.03892 9.41421 9.41399C9.03914 9.78907 8.53043 9.99978 8 9.99978C7.46957 9.99978 6.96086 9.78907 6.58578 9.41399C6.21071 9.03892 6 8.53021 6 7.99978Z" fill="#909090"/>
</g>
<defs>
<clipPath id="clip0_428_146">
<rect width="16" height="16" fill="white"/>
</clipPath>
</defs>
</svg>
