<svg width="32" height="32" viewBox="0 0 32 32" fill="none" xmlns="http://www.w3.org/2000/svg">
<circle cx="16" cy="16" r="16" fill="#909090"/>
<path d="M20.282 15.2254C20.1947 15.139 20.0769 15.0904 19.954 15.0901H8.64901C8.60309 15.0899 8.55813 15.1033 8.51988 15.1287C8.48162 15.1541 8.45181 15.1903 8.43425 15.2327C8.41668 15.2752 8.41217 15.3219 8.42128 15.3669C8.43038 15.4119 8.4527 15.4531 8.48538 15.4854L10.718 17.7188C10.7611 17.7619 10.8122 17.796 10.8685 17.8193C10.9248 17.8425 10.9851 17.8543 11.046 17.8541H22.351C22.3969 17.8543 22.4419 17.8409 22.4801 17.8155C22.5184 17.7901 22.5482 17.7539 22.5658 17.7115C22.5833 17.669 22.5878 17.6223 22.5787 17.5773C22.5696 17.5323 22.5473 17.4911 22.5146 17.4588L20.282 15.2254ZM8.64901 13.7131H19.954C20.0149 13.7134 20.0752 13.7016 20.1315 13.6784C20.1878 13.6551 20.239 13.621 20.282 13.5778L22.5125 11.3445C22.5452 11.3122 22.5675 11.2709 22.5766 11.2259C22.5857 11.1809 22.5812 11.1342 22.5636 11.0918C22.5461 11.0494 22.5163 11.0132 22.478 10.9878C22.4398 10.9624 22.3948 10.9489 22.3489 10.9492H11.046C10.9235 10.951 10.8062 10.9993 10.718 11.0845L8.48751 13.3179C8.45496 13.35 8.43268 13.3911 8.42351 13.4359C8.41433 13.4807 8.41867 13.5272 8.43597 13.5696C8.45327 13.6119 8.48275 13.6482 8.52068 13.6737C8.55861 13.6993 8.60327 13.713 8.64901 13.7131ZM22.351 19.2877H11.046C10.9851 19.2875 10.9248 19.2993 10.8685 19.3225C10.8122 19.3457 10.7611 19.3799 10.718 19.423L8.48751 21.6564C8.45483 21.6886 8.43251 21.7299 8.4234 21.7749C8.41429 21.8199 8.41881 21.8666 8.43637 21.9091C8.45394 21.9515 8.48375 21.9877 8.522 22.0131C8.56026 22.0385 8.60522 22.0519 8.65113 22.0516H19.9561C20.079 22.0514 20.1968 22.0028 20.2841 21.9163L22.5125 19.683C22.5451 19.6508 22.5673 19.6098 22.5765 19.565C22.5857 19.5202 22.5813 19.4736 22.564 19.4313C22.5467 19.389 22.5173 19.3527 22.4793 19.3271C22.4414 19.3016 22.3967 19.2879 22.351 19.2877Z" fill="white"/>
</svg>
