<svg width="40" height="40" viewBox="0 0 40 40" fill="none" xmlns="http://www.w3.org/2000/svg">
<circle cx="20" cy="20" r="20" fill="#F2F2F2"/>
<g clip-path="url(#clip0_195_3729)">
<path d="M17.107 14.448C17.705 12.698 20.123 12.645 20.832 14.289L20.892 14.449L21.699 16.809C21.8839 17.3502 22.1828 17.8455 22.5754 18.2614C22.968 18.6773 23.4453 19.0042 23.975 19.22L24.192 19.301L26.552 20.107C28.302 20.705 28.355 23.123 26.712 23.832L26.552 23.892L24.192 24.699C23.6506 24.8838 23.1551 25.1826 22.739 25.5753C22.3229 25.9679 21.9959 26.4452 21.78 26.975L21.699 27.191L20.893 29.552C20.295 31.302 17.877 31.355 17.169 29.712L17.107 29.552L16.301 27.192C16.1162 26.6506 15.8174 26.1551 15.4247 25.739C15.0321 25.3229 14.5548 24.9959 14.025 24.78L13.809 24.699L11.449 23.893C9.69798 23.295 9.64498 20.877 11.289 20.169L11.449 20.107L13.809 19.301C14.3502 19.1161 14.8455 18.8172 15.2614 18.4246C15.6773 18.0319 16.0042 17.5547 16.22 17.025L16.301 16.809L17.107 14.448ZM19 15.094L18.194 17.454C17.9124 18.2793 17.4543 19.0333 16.8515 19.6635C16.2488 20.2937 15.5159 20.7849 14.704 21.103L14.454 21.194L12.094 22L14.454 22.806C15.2793 23.0876 16.0333 23.5457 16.6635 24.1485C17.2937 24.7512 17.7849 25.4841 18.103 26.296L18.194 26.546L19 28.906L19.806 26.546C20.0876 25.7207 20.5457 24.9667 21.1484 24.3365C21.7512 23.7063 22.484 23.2151 23.296 22.897L23.546 22.807L25.906 22L23.546 21.194C22.7207 20.9124 21.9667 20.4543 21.3365 19.8515C20.7063 19.2488 20.2151 18.5159 19.897 17.704L19.807 17.454L19 15.094ZM27 11C27.1871 11 27.3704 11.0525 27.5291 11.1515C27.6879 11.2505 27.8157 11.392 27.898 11.56L27.946 11.677L28.296 12.703L29.323 13.053C29.5105 13.1167 29.6748 13.2346 29.7952 13.3918C29.9156 13.549 29.9866 13.7384 29.9993 13.936C30.0119 14.1336 29.9656 14.3305 29.8662 14.5018C29.7668 14.673 29.6188 14.8109 29.441 14.898L29.323 14.946L28.297 15.296L27.947 16.323C27.8832 16.5104 27.7652 16.6747 27.6079 16.795C27.4506 16.9153 27.2612 16.9862 27.0636 16.9987C26.866 17.0113 26.6692 16.9648 26.498 16.8654C26.3268 16.7659 26.189 16.6179 26.102 16.44L26.054 16.323L25.704 15.297L24.677 14.947C24.4895 14.8833 24.3251 14.7654 24.2048 14.6082C24.0844 14.451 24.0133 14.2616 24.0007 14.064C23.9881 13.8664 24.0344 13.6695 24.1338 13.4982C24.2332 13.327 24.3811 13.1891 24.559 13.102L24.677 13.054L25.703 12.704L26.053 11.677C26.1204 11.4794 26.248 11.3079 26.4178 11.1865C26.5876 11.0651 26.7912 10.9999 27 11Z" fill="#01C259"/>
</g>
<defs>
<clipPath id="clip0_195_3729">
<rect width="24" height="24" fill="white" transform="translate(8 9)"/>
</clipPath>
</defs>
</svg>
