<svg width="55" height="55" viewBox="0 0 55 55" fill="none" xmlns="http://www.w3.org/2000/svg">
<rect width="55" height="55" rx="27.5" fill="#01C259"/>
<path fill-rule="evenodd" clip-rule="evenodd" d="M24.0966 17.5813C26.3351 17.0562 28.6649 17.0562 30.9034 17.5813C34.1362 18.3396 36.6604 20.8638 37.4187 24.0966C37.9438 26.3351 37.9438 28.6649 37.4187 30.9034C36.6604 34.1362 34.1362 36.6604 30.9034 37.4187C28.6649 37.9438 26.3351 37.9438 24.0966 37.4187C20.8638 36.6604 18.3396 34.1362 17.5813 30.9034C17.0562 28.6649 17.0562 26.3351 17.5813 24.0966C18.3396 20.8638 20.8638 18.3396 24.0966 17.5813ZM26.0263 25.0956C25.7693 24.8385 25.3526 24.8385 25.0956 25.0956C24.8385 25.3526 24.8385 25.7693 25.0956 26.0263L26.5692 27.5L25.0956 28.9737C24.8385 29.2307 24.8385 29.6474 25.0956 29.9044C25.3526 30.1614 25.7693 30.1614 26.0263 29.9044L27.5 28.4307L28.9737 29.9044C29.2307 30.1614 29.6474 30.1614 29.9044 29.9044C30.1614 29.6474 30.1614 29.2307 29.9044 28.9736L28.4307 27.5L29.9044 26.0263C30.1614 25.7693 30.1614 25.3526 29.9044 25.0956C29.6474 24.8385 29.2307 24.8385 28.9737 25.0956L27.5 26.5692L26.0263 25.0956Z" fill="#F2F2F2"/>
</svg>
