<svg width="19" height="19" viewBox="0 0 19 19" fill="none" xmlns="http://www.w3.org/2000/svg">
<rect width="18.6667" height="18.6667" rx="5.09091" fill="#E6F6E9"/>
<g clip-path="url(#clip0_54_1988)">
<g clip-path="url(#clip1_54_1988)">
<path d="M10.4646 4.24268C10.7647 4.24268 11.0524 4.36187 11.2646 4.57403C11.4767 4.78619 11.5959 5.07395 11.5959 5.37399H13.2929C13.5929 5.37399 13.8807 5.49318 14.0929 5.70534C14.305 5.91751 14.4242 6.20526 14.4242 6.5053V7.63662C14.4243 7.88851 14.3404 8.13325 14.1857 8.33203C14.0309 8.53081 13.8143 8.67227 13.5701 8.73399L14.7817 11.56C14.931 11.8581 14.9899 12.1172 14.9899 12.4447C14.9901 12.8944 14.8372 13.3307 14.5564 13.6819C14.2756 14.0331 13.8836 14.2783 13.4449 14.377C13.0062 14.4758 12.547 14.4223 12.1427 14.2253C11.7385 14.0283 11.4134 13.6995 11.2209 13.2932H8.01136C7.82933 13.6778 7.52825 13.9935 7.15274 14.1935C6.77722 14.3935 6.34725 14.4673 5.92654 14.4038C5.50582 14.3403 5.11675 14.143 4.81697 13.8411C4.51719 13.5392 4.32265 13.1487 4.26219 12.7275H4.24239C4.09237 12.7275 3.94849 12.6679 3.84241 12.5618C3.73633 12.4558 3.67673 12.3119 3.67673 12.1619V7.63662C3.67673 7.33657 3.79593 7.04882 4.00809 6.83666C4.22025 6.62449 4.50801 6.5053 4.80805 6.5053H7.07067C7.37072 6.5053 7.65847 6.62449 7.87063 6.83666C8.0828 7.04882 8.20199 7.33657 8.20199 7.63662V8.76793C8.20199 9.06797 8.32118 9.35572 8.53334 9.56789C8.7455 9.78005 9.03326 9.89924 9.3333 9.89924C9.63334 9.89924 9.9211 9.78005 10.1333 9.56789C10.3454 9.35572 10.4646 9.06797 10.4646 8.76793V5.37399H9.3333C9.18328 5.37399 9.0394 5.31439 8.93332 5.20831C8.82724 5.10223 8.76764 4.95835 8.76764 4.80833C8.76764 4.65831 8.82724 4.51443 8.93332 4.40835C9.0394 4.30227 9.18328 4.24268 9.3333 4.24268H10.4646ZM6.22219 11.5962C5.99716 11.5962 5.78134 11.6856 5.62222 11.8447C5.4631 12.0038 5.3737 12.2197 5.3737 12.4447C5.3737 12.6697 5.4631 12.8855 5.62222 13.0447C5.78134 13.2038 5.99716 13.2932 6.22219 13.2932C6.44722 13.2932 6.66304 13.2038 6.82216 13.0447C6.98128 12.8855 7.07067 12.6697 7.07067 12.4447C7.07067 12.2197 6.98128 12.0038 6.82216 11.8447C6.66304 11.6856 6.44722 11.5962 6.22219 11.5962ZM13.0101 11.5962C12.8423 11.5962 12.6782 11.646 12.5387 11.7392C12.3991 11.8324 12.2904 11.965 12.2262 12.12C12.162 12.275 12.1451 12.4456 12.1779 12.6102C12.2106 12.7748 12.2914 12.926 12.4101 13.0447C12.5288 13.1633 12.6799 13.2441 12.8445 13.2769C13.0091 13.3096 13.1797 13.2928 13.3348 13.2286C13.4898 13.1644 13.6223 13.0556 13.7156 12.9161C13.8088 12.7766 13.8586 12.6125 13.8586 12.4447C13.8586 11.9859 13.4711 11.5962 13.0101 11.5962ZM12.3539 8.76793H11.5959C11.5961 9.26617 11.4319 9.75055 11.1286 10.1459C10.8254 10.5412 10.4001 10.8254 9.91885 10.9544C9.43757 11.0833 8.9272 11.0498 8.46693 10.859C8.00666 10.6682 7.62223 10.3308 7.3733 9.89924H4.80805V11.0588C5.06639 10.795 5.39338 10.6087 5.75205 10.5209C6.11072 10.4332 6.48679 10.4475 6.83777 10.5622C7.18875 10.6769 7.50064 10.8875 7.73821 11.1702C7.97579 11.4529 8.12957 11.7964 8.18219 12.1619H11.0501C11.1915 11.1725 12.0852 10.431 13.0819 10.466L12.3539 8.76793ZM7.07067 7.63662H4.80805V8.76793H7.07067V7.63662ZM13.2929 6.5053H11.5959V7.63662H13.2929V6.5053Z" fill="#25AD3E"/>
</g>
</g>
<defs>
<clipPath id="clip0_54_1988">
<rect width="13.5758" height="13.5758" fill="white" transform="translate(2.54546 2.5459)"/>
</clipPath>
<clipPath id="clip1_54_1988">
<rect width="13.5758" height="13.5758" fill="white" transform="translate(2.54546 2.5459)"/>
</clipPath>
</defs>
</svg>
