<svg width="22" height="22" viewBox="0 0 22 22" fill="none" xmlns="http://www.w3.org/2000/svg">
<rect width="22" height="22" rx="6" fill="#F0EEFA"/>
<g clip-path="url(#clip0_54_1421)">
<path fill-rule="evenodd" clip-rule="evenodd" d="M15.6667 6.32601V7.00001C16.0203 7.00001 16.3594 7.14049 16.6095 7.39054C16.8595 7.64058 17 7.97972 17 8.33334V15C17 15.3536 16.8595 15.6928 16.6095 15.9428C16.3594 16.1929 16.0203 16.3333 15.6667 16.3333H6.33333C5.97971 16.3333 5.64057 16.1929 5.39052 15.9428C5.14048 15.6928 5 15.3536 5 15V8.33334C5 7.63668 5.55667 7.00468 6.20867 6.81868L13.542 4.72334C13.7901 4.65245 14.0512 4.64011 14.3048 4.68729C14.5585 4.73448 14.7977 4.83991 15.0037 4.99527C15.2096 5.15064 15.3767 5.3517 15.4918 5.58262C15.6068 5.81354 15.6667 6.06802 15.6667 6.32601ZM13.3333 10.6667C13.0681 10.6667 12.8138 10.772 12.6262 10.9596C12.4387 11.1471 12.3333 11.4015 12.3333 11.6667C12.3333 11.9319 12.4387 12.1862 12.6262 12.3738C12.8138 12.5613 13.0681 12.6667 13.3333 12.6667C13.5985 12.6667 13.8529 12.5613 14.0404 12.3738C14.228 12.1862 14.3333 11.9319 14.3333 11.6667C14.3333 11.4015 14.228 11.1471 14.0404 10.9596C13.8529 10.772 13.5985 10.6667 13.3333 10.6667ZM14.3333 6.32601C14.3334 6.27895 14.3234 6.23242 14.3042 6.18947C14.285 6.14653 14.2568 6.10814 14.2217 6.07685C14.1866 6.04555 14.1452 6.02204 14.1003 6.00788C14.0554 5.99372 14.0081 5.98922 13.9613 5.99468L13.908 6.00534L10.4267 7.00001H14.3333V6.32601Z" fill="#6A59CE"/>
</g>
<defs>
<clipPath id="clip0_54_1421">
<rect width="16" height="16" fill="white" transform="translate(3 3)"/>
</clipPath>
</defs>
</svg>
