<svg width="16" height="16" viewBox="0 0 16 16" fill="none" xmlns="http://www.w3.org/2000/svg">
<g clip-path="url(#clip0_136_582)">
<path d="M8.00004 1.33301C11.682 1.33301 14.6667 4.31767 14.6667 7.99967C14.6667 11.6817 11.682 14.6663 8.00004 14.6663C4.31804 14.6663 1.33337 11.6817 1.33337 7.99967C1.33337 4.31767 4.31804 1.33301 8.00004 1.33301ZM8.00004 2.66634C6.58555 2.66634 5.229 3.22824 4.2288 4.22844C3.22861 5.22863 2.66671 6.58519 2.66671 7.99967C2.66671 9.41416 3.22861 10.7707 4.2288 11.7709C5.229 12.7711 6.58555 13.333 8.00004 13.333C9.41453 13.333 10.7711 12.7711 11.7713 11.7709C12.7715 10.7707 13.3334 9.41416 13.3334 7.99967C13.3334 6.58519 12.7715 5.22863 11.7713 4.22844C10.7711 3.22824 9.41453 2.66634 8.00004 2.66634ZM8.00004 9.99967C8.17685 9.99967 8.34642 10.0699 8.47144 10.1949C8.59647 10.32 8.66671 10.4895 8.66671 10.6663C8.66671 10.8432 8.59647 11.0127 8.47144 11.1377C8.34642 11.2628 8.17685 11.333 8.00004 11.333C7.82323 11.333 7.65366 11.2628 7.52864 11.1377C7.40361 11.0127 7.33337 10.8432 7.33337 10.6663C7.33337 10.4895 7.40361 10.32 7.52864 10.1949C7.65366 10.0699 7.82323 9.99967 8.00004 9.99967ZM8.00004 3.99967C8.17685 3.99967 8.34642 4.06991 8.47144 4.19494C8.59647 4.31996 8.66671 4.48953 8.66671 4.66634V8.66634C8.66671 8.84315 8.59647 9.01272 8.47144 9.13774C8.34642 9.26277 8.17685 9.33301 8.00004 9.33301C7.82323 9.33301 7.65366 9.26277 7.52864 9.13774C7.40361 9.01272 7.33337 8.84315 7.33337 8.66634V4.66634C7.33337 4.48953 7.40361 4.31996 7.52864 4.19494C7.65366 4.06991 7.82323 3.99967 8.00004 3.99967Z" fill="#9747FF"/>
</g>
<defs>
<clipPath id="clip0_136_582">
<rect width="16" height="16" fill="white"/>
</clipPath>
</defs>
</svg>
